<?xml version="1.0" encoding="UTF-8" standalone="no"?>
<!-- Created with Inkscape (http://www.inkscape.org/) -->

<svg
   width="94.779739mm"
   height="74.404243mm"
   viewBox="0 0 94.779739 74.404243"
   version="1.1"
   id="svg1"
   xml:space="preserve"
   inkscape:version="1.3 (0e150ed6c4, 2023-07-21)"
   sodipodi:docname="continuous improvement logo.svg"
   xmlns:inkscape="http://www.inkscape.org/namespaces/inkscape"
   xmlns:sodipodi="http://sodipodi.sourceforge.net/DTD/sodipodi-0.dtd"
   xmlns="http://www.w3.org/2000/svg"
   xmlns:svg="http://www.w3.org/2000/svg"><sodipodi:namedview
     id="namedview1"
     pagecolor="#ffffff"
     bordercolor="#000000"
     borderopacity="0.25"
     inkscape:showpageshadow="2"
     inkscape:pageopacity="0.0"
     inkscape:pagecheckerboard="0"
     inkscape:deskcolor="#d1d1d1"
     inkscape:document-units="mm"
     inkscape:zoom="4.7647767"
     inkscape:cx="365.28469"
     inkscape:cy="490.15938"
     inkscape:window-width="3058"
     inkscape:window-height="1266"
     inkscape:window-x="380"
     inkscape:window-y="380"
     inkscape:window-maximized="0"
     inkscape:current-layer="layer1" /><defs
     id="defs1" /><g
     inkscape:label="Layer 1"
     inkscape:groupmode="layer"
     id="layer1"
     transform="translate(-69.409715,-177.00625)"><g
       id="g24"><path
         id="rect1-5-0"
         style="font-variation-settings:'wght' 646;fill:#000000;fill-opacity:1;stroke-width:1.298;stroke-linecap:round;stroke-linejoin:round"
         d="m 118.32249,243.97581 v 0.82992 a 31.074734,29.761719 0 0 0 0.27234,0.0207 31.074734,29.761719 0 0 0 7.32978,-0.85059 z m 24.70961,0 a 38.843418,37.202148 0 0 1 -16.10186,7.4135 h 30.4276 l 3.47575,-3.47576 -3.93774,-3.93774 z m 16.11012,0 3.38429,3.38429 c 0.31109,0.31109 0.31109,0.81183 0,1.12292 -0.0275,0.0275 -0.0582,0.0497 -0.0884,0.0724 l -2.83394,2.83394 h 4.58525 v -7.4135 z" /><path
         id="path1-1"
         style="font-variation-settings:'wght' 646;fill:#000000;fill-opacity:1;stroke-width:1.54815;stroke-linecap:round;stroke-linejoin:round"
         d="m 117.72976,177.00625 a 38.843418,37.202148 0 0 0 -38.843619,37.20186 38.843418,37.202148 0 0 0 2.986381,13.97951 l 4.747514,1.51309 1.81591,-5.69836 a 31.074734,29.761719 0 0 1 -1.78077,-9.79424 31.074734,29.761719 0 0 1 31.074584,-29.76149 31.074734,29.761719 0 0 1 31.07459,29.76149 31.074734,29.761719 0 0 1 -4.99401,16.02383 l 4.33979,-1.58595 c 0.10331,-0.0377 0.20959,-0.0526 0.31264,-0.0475 0.30916,0.015 0.59266,0.21098 0.7059,0.5209 0.0135,0.0368 0.0211,0.0744 0.0289,0.11162 l 1.62367,4.44417 a 38.843418,37.202148 0 0 0 5.75211,-19.46703 38.843418,37.202148 0 0 0 -38.84363,-37.20186 z m -28.309378,49.1386 -1.53169,4.80539 c -0.133589,0.41918 -0.578178,0.64932 -0.997355,0.51573 -0.03745,-0.0119 -0.07163,-0.0293 -0.105937,-0.046 l -4.137215,-1.31826 a 38.843418,37.202148 0 0 0 10.51202,12.84417 H 110.00776 A 31.074734,29.761719 0 0 1 89.420382,226.14485 Z m 58.518388,4.26951 -5.82755,2.12959 a 31.074734,29.761719 0 0 1 -24.17372,11.421 v 0.002 h -0.0677 a 31.074734,29.761719 0 0 1 -0.14005,0.004 31.074734,29.761719 0 0 1 -0.0481,-0.004 H 94.583374 a 38.843418,37.202148 0 0 0 23.146386,7.44399 38.843418,37.202148 0 0 0 31.99133,-16.11788 z" /><path
         id="path1-4-6"
         style="font-variation-settings:'wght' 646;fill:#000000;fill-opacity:1;stroke-width:0.647393;stroke-linecap:round;stroke-linejoin:round"
         d="m 101.81291,190.53152 a 16.243232,15.556898 0 0 0 -16.243456,15.55719 16.243232,15.556898 0 0 0 4.983675,11.16056 l 2.225187,-0.12764 -0.127124,-2.21072 a 12.994585,12.445519 0 0 1 -3.832841,-8.8222 12.994585,12.445519 0 0 1 12.994559,-12.44575 12.994585,12.445519 0 0 1 0.32504,0.008 l -1.10329,-1.13068 c -0.15768,-0.16164 -0.1544,-0.41851 0.007,-0.57619 0.0151,-0.0147 0.0315,-0.0268 0.0481,-0.0388 l 1.39268,-1.35857 a 16.243232,15.556898 0 0 0 -0.66972,-0.0155 z m 1.75596,0.0946 -1.66191,1.62109 1.45056,1.48673 a 12.994585,12.445519 0 0 1 11.44994,12.3548 12.994585,12.445519 0 0 1 -12.99455,12.44524 12.994585,12.445519 0 0 1 -8.304406,-2.92179 l 0.107487,1.87534 c 0.01294,0.22544 -0.158,0.41752 -0.383439,0.43046 -0.02008,0.001 -0.03947,-9e-4 -0.05891,-0.003 l -1.759583,0.10077 a 16.243232,15.556898 0 0 0 10.398851,3.62924 16.243232,15.556898 0 0 0 16.24345,-15.55668 16.243232,15.556898 0 0 0 -14.48749,-15.46262 z" /><path
         id="rect1-5-6-2"
         style="font-variation-settings:'wght' 646;fill:#000000;fill-opacity:1;stroke-width:1.31324;stroke-linecap:round;stroke-linejoin:round"
         d="m 69.409717,243.97581 v 7.4135 h 1.727543 l 3.731038,-3.73104 -3.682462,-3.68246 z m 4.021977,0 3.129524,3.12952 c 0.311092,0.31109 0.311092,0.81184 0,1.12293 -0.02763,0.0276 -0.05851,0.0496 -0.08888,0.0724 l -3.088701,3.0887 h 42.975673 v -7.4135 z" /></g></g></svg>
