<?xml version="1.0" encoding="UTF-8" standalone="no"?>
<!-- Created with Inkscape (http://www.inkscape.org/) -->

<svg
   width="204.28305mm"
   height="179.74889mm"
   viewBox="0 0 204.28305 179.74889"
   version="1.1"
   id="svg1"
   sodipodi:docname="full stack icon.svg"
   inkscape:version="1.3 (0e150ed6c4, 2023-07-21)"
   xml:space="preserve"
   xmlns:inkscape="http://www.inkscape.org/namespaces/inkscape"
   xmlns:sodipodi="http://sodipodi.sourceforge.net/DTD/sodipodi-0.dtd"
   xmlns="http://www.w3.org/2000/svg"
   xmlns:svg="http://www.w3.org/2000/svg"><sodipodi:namedview
     id="namedview1"
     pagecolor="#505050"
     bordercolor="#ffffff"
     borderopacity="1"
     inkscape:showpageshadow="0"
     inkscape:pageopacity="0"
     inkscape:pagecheckerboard="1"
     inkscape:deskcolor="#d1d1d1"
     inkscape:document-units="mm"
     showguides="false"
     showgrid="false"
     inkscape:zoom="0.34583057"
     inkscape:cx="536.38983"
     inkscape:cy="310.84586"
     inkscape:window-width="1366"
     inkscape:window-height="745"
     inkscape:window-x="-8"
     inkscape:window-y="-8"
     inkscape:window-maximized="1"
     inkscape:current-layer="layer2"
     inkscape:lockguides="true"><sodipodi:guide
       position="110.63115,193.2664"
       orientation="1,0"
       id="guide1"
       inkscape:locked="true" /><sodipodi:guide
       position="121.18033,195.0246"
       orientation="1,0"
       id="guide2"
       inkscape:locked="true" /><sodipodi:guide
       position="95.61885,178.5246"
       orientation="0,-1"
       id="guide3"
       inkscape:locked="true" /><sodipodi:guide
       position="122.53278,189.07378"
       orientation="0,-1"
       id="guide4"
       inkscape:locked="true" /></sodipodi:namedview><defs
     id="defs1"><clipPath
       clipPathUnits="userSpaceOnUse"
       id="clipPath7"><ellipse
         style="fill:#ffffff;stroke-width:0.432578"
         id="ellipse7"
         cx="-62.747757"
         cy="148.35292"
         rx="55.668568"
         ry="53.151642" /></clipPath><clipPath
       clipPathUnits="userSpaceOnUse"
       id="clipPath7-6"><ellipse
         style="fill:#ffffff;stroke-width:0.432578"
         id="ellipse7-6"
         cx="-62.747757"
         cy="148.35292"
         rx="55.668568"
         ry="53.151642" /></clipPath></defs><g
     inkscape:groupmode="layer"
     id="layer2"
     inkscape:label="Layer 2"
     transform="translate(12.204306,-16.964073)"><path
       id="path15"
       style="opacity:1;fill:#ffffff;fill-opacity:1;stroke:none;stroke-width:0;stroke-dasharray:none;stroke-opacity:1"
       d="m 136.79944,16.967426 c -35.98652,-0.212727 -50.257019,9.753928 -54.75222,14.064775 -1.347975,0.577475 -2.307869,2.05692 -2.307869,3.814754 v 27.721306 h 7.09259 V 45.240119 c 7.490019,4.855404 22.216739,10.805706 49.506539,10.644312 29.17909,-0.172566 42.67054,-5.832932 48.64716,-9.932727 v 24.635705 c -3.2051,4.041512 -13.32357,8.225975 -33.26618,10.180774 0.12975,0.9497 0.22014,1.912086 0.22014,2.898531 v 5.787761 c 18.25134,-1.555843 28.00404,-5.607209 33.04604,-8.865609 v 25.732284 c -1.8045,4.36545 -11.53891,9.2329 -33.04604,11.46597 v 8.71988 c 18.77176,-1.70234 28.3517,-6.06372 33.04604,-9.35344 V 141.704 c -3.11579,4.04854 -13.15239,8.25723 -33.04604,10.23762 v 8.59689 c 24.5132,-2.41547 34.51045,-10.03329 37.97339,-13.73198 1.27488,-0.61755 2.16576,-2.06619 2.16576,-3.76359 V 34.846955 c 0,-1.56838 -0.76904,-2.909112 -1.89032,-3.593579 -3.50658,-3.870626 -16.25203,-14.066229 -53.38848,-14.28595 z m -7.2099,8.260995 c 2.15622,-0.0015 4.39217,0.03525 6.70812,0.111621 29.55468,0.974484 43.90979,5.955156 48.20739,10.820011 -3.69902,5.02772 -18.03583,10.342276 -48.66783,11.352279 -29.90745,0.986113 -44.585253,-3.525519 -49.005279,-11.27063 V 35.681013 C 93.01572,29.479945 106.89099,25.244978 129.58954,25.228421 Z"
       inkscape:export-filename="icon-full-stack.svg"
       inkscape:export-xdpi="96"
       inkscape:export-ydpi="96" /><path
       id="rect1"
       style="fill:#ffffff;fill-opacity:1;stroke-width:0.264583"
       d="m 41.981934,60.48158 c -14.086117,0 -25.426355,11.339721 -25.426355,25.425838 v 61.672202 c 0,14.08612 11.340238,25.42636 25.426355,25.42636 h 89.803306 c 14.08611,0 25.42635,-11.34024 25.42635,-25.42636 V 85.907418 c 0,-14.086117 -11.34024,-25.425838 -25.42635,-25.425838 z m 4.144966,5.193481 h 81.51337 c 12.78586,0 23.07921,10.293351 23.07921,23.079211 v 55.979008 c 0,12.78586 -10.29335,23.07922 -23.07921,23.07922 H 46.1269 c -12.78586,0 -23.079211,-10.29336 -23.079211,-23.07922 V 88.754272 c 0,-12.78586 10.293351,-23.079211 23.079211,-23.079211 z" /><g
       id="g11"
       transform="translate(-34.249454,9.123429)"
       style="fill:#ffffff;fill-opacity:1"><path
         id="rect5"
         clip-path="url(#clipPath7)"
         style="fill:#ffffff;fill-opacity:1;stroke-width:0.264583"
         d="m -105.74979,69.69806 c -11.40805,0 -20.80951,8.201884 -22.70802,19.049838 l 34.050269,-18.614201 -1.13318,32.861573 c 9.081066,-6.489526 20.192096,-10.320126 32.204526,-10.320103 22.053985,-4.3e-5 37.388705,10.264393 46.030632,24.540703 -1.745332,-3.88019 -3.722072,-7.84813 -5.956544,-11.99408 l 12.171727,-1.08223 12.322601,25.51321 V 92.777056 c 0,-12.785821 -10.2931735,-23.078996 -23.078996,-23.078996 z m 29.32422,27.150607 c -0.39978,-0.01353 -0.807839,0.04701 -1.205025,0.190061 l -7.266069,2.616438 c -1.592309,0.572194 -2.475291,2.270454 -2.023396,3.901144 l 2.330367,11.42455 c 0.19073,0.69168 -0.02446,1.44057 -0.561039,1.92412 l -7.226881,6.58028 c -0.536573,0.48356 -1.295919,0.63284 -1.973759,0.37882 l -1.888851,-0.5728 -0.218145,6.32818 c 0,0 1.511773,27.64172 30.768293,27.34916 l 40.834331,-0.40821 -0.002,-10e-4 c -0.625214,-0.36009 -1.003199,-1.04195 -0.964019,-1.76214 l 0.45915,-9.75776 c 0.03878,-0.72375 0.469678,-1.36282 1.123383,-1.6596 l 10.291367,-5.48956 c 1.542454,-0.68852 2.287564,-2.46058 1.715772,-4.04222 l -2.613172,-7.26934 c -0.575352,-1.59231 -2.276979,-2.475 -3.907676,-2.02666 l -11.421281,2.32645 c -0.699208,0.19785 -1.43776,-0.0214 -1.92804,-0.55843 l -6.573752,-7.2223 c -0.490673,-0.53697 -0.638931,-1.29201 -0.378162,-1.96984 l 3.351209,-11.05749 c 0.596325,-1.5852 -0.116036,-3.36113 -1.651765,-4.07815 l -6.983917,-3.286545 c -1.532162,-0.720578 -3.361145,-0.144854 -4.197666,1.327165 l -6.383038,9.6317 c -0.356926,0.62518 -1.03765,1.00209 -1.758225,0.96729 l -9.758413,-0.46242 c -0.720179,-0.0317 -1.370047,-0.47691 -1.662869,-1.12665 l -5.483025,-10.2881 c -0.521737,-1.156838 -1.644392,-1.865233 -2.843727,-1.905833 z m 13.089375,43.719203 c 4.183017,4e-5 7.573942,3.39132 7.573694,7.57435 -4.4e-5,4.1828 -3.390884,7.57365 -7.573694,7.57369 -4.18281,-4e-5 -7.57365,-3.39089 -7.573694,-7.57369 -2.48e-4,-4.18303 3.390677,-7.57431 7.573694,-7.57435 z"
         transform="matrix(0.79121224,0,0,0.79121224,136.22908,31.822377)" /><path
         id="rect5-5"
         clip-path="url(#clipPath7-6)"
         style="fill:#ffffff;fill-opacity:1;stroke-width:0.264583"
         d="m -14.968693,70.732171 c -2.170669,-0.67233 -4.480752,-1.03428 -6.878094,-1.03428 l -83.902613,3.3e-4 c -12.78582,0 -23.07949,10.293323 -23.07949,23.079144 l -9e-5,43.232915 14.16513,-63.170961 L 1.1010834,90.324901 C 0.12762716,81.031594 -6.3130795,73.413111 -14.968693,70.732171 Z m -21.718596,59.809559 c 0,0 -18.146895,-3.8027 -28.732216,10.35293 0.666062,-0.19157 1.355762,-0.32617 2.08345,-0.32617 4.183017,4e-5 7.573786,3.39089 7.573538,7.57391 -4.4e-5,4.18281 -3.391105,7.5735 -7.573915,7.57354 -3.228271,-3e-5 -5.96495,-2.02879 -7.054954,-4.87363 -0.239752,0.75558 -0.468752,1.53034 -0.677213,2.34066 l -11.403068,44.3258 0.13754,0.0646 c 1.535727,0.72375 3.360622,0.14094 4.197534,-1.32436 l 6.37965,-9.63468 c 0.360088,-0.62127 1.038156,-1.0027 1.761898,-0.9607 l 9.758514,0.45916 c 0.72374,0.0356 1.365845,0.46653 1.665789,1.12657 l 5.47962,10.28348 c 0.699207,1.54323 2.460809,2.29479 4.04916,1.7226 l 7.265909,-2.6186 c 1.59548,-0.57179 2.4753,-2.27353 2.027361,-3.90462 l -2.333772,-11.41768 c -0.186769,-0.69921 0.02784,-1.44452 0.560857,-1.93164 l 7.226976,-6.57652 c 0.529454,-0.48354 1.29939,-0.62843 1.966549,-0.37439 l 11.064455,3.35012 c 1.57846,0.59672 3.357734,-0.11692 4.078312,-1.64908 l 3.282476,-6.98635 c 0.726911,-1.53573 0.145495,-3.35781 -1.323359,-4.19118 l -9.631387,-6.38688 c -0.625215,-0.36009 -1.003377,-1.04129 -0.964197,-1.76148 l 0.459618,-9.75772 c 0.03878,-0.72375 0.469117,-1.36257 1.122822,-1.65935 l 10.291113,-5.49043 c 0.166429,-0.0743 0.319221,-0.16657 0.46643,-0.26449 z m 37.9195886,50.78548 c -3.5073886,0.83169 -6.3715383,0.71411 -6.3715383,0.71411 0,0 -34.5433703,38.57285 -16.5004673,5.68002 1.675237,-3.05402 3.153734,-5.99804 4.454727,-8.85289 -8.619427,14.3802 -23.994697,24.74066 -46.151353,24.74062 -6.965905,2e-5 -13.625841,-1.29585 -19.768137,-3.64024 l -3.882866,15.09165 65.140726,4.3e-4 c 12.7858225,0 23.078861,-10.29348 23.078861,-23.07931 z M -120.94433,209.35137 c 4.05577,3.54787 9.35805,5.70907 15.19465,5.70907 l 3.45519,1.4e-4 z"
         transform="matrix(0.76425234,-0.2047808,0.2047808,0.76425234,83.535513,-47.771678)" /></g><rect
       style="opacity:1;fill:#ffffff;fill-opacity:1;stroke:none;stroke-width:0;stroke-dasharray:none;stroke-opacity:1"
       id="rect16"
       width="8.9013758"
       height="24.885233"
       x="82.5"
       y="168.7869"
       ry="1.7044686" /><rect
       style="fill:#ffffff;fill-opacity:1;stroke:none;stroke-width:0;stroke-dasharray:none;stroke-opacity:1"
       id="rect16-4"
       width="8.2975731"
       height="62.469116"
       x="-196.71295"
       y="56.375072"
       ry="2.0769522"
       transform="rotate(-90)"
       rx="3.2852831" /></g><style
     type="text/css"
     id="style1">&#10;	.st0{fill:#000000;}&#10;</style></svg>
