<?xml version="1.0" encoding="UTF-8" standalone="no"?>
<!-- Created with Inkscape (http://www.inkscape.org/) -->

<svg
   width="60.299999mm"
   height="60.300003mm"
   viewBox="0 0 60.299999 60.300003"
   version="1.1"
   id="svg5"
   inkscape:version="1.3 (0e150ed6c4, 2023-07-21)"
   sodipodi:docname="Pattern_Spanish Tile.svg"
   xml:space="preserve"
   xmlns:inkscape="http://www.inkscape.org/namespaces/inkscape"
   xmlns:sodipodi="http://sodipodi.sourceforge.net/DTD/sodipodi-0.dtd"
   xmlns="http://www.w3.org/2000/svg"
   xmlns:svg="http://www.w3.org/2000/svg"><sodipodi:namedview
     id="namedview7"
     pagecolor="#ffffff"
     bordercolor="#666666"
     borderopacity="1.0"
     inkscape:showpageshadow="2"
     inkscape:pageopacity="0.0"
     inkscape:pagecheckerboard="0"
     inkscape:deskcolor="#d1d1d1"
     inkscape:document-units="mm"
     showgrid="true"
     inkscape:zoom="2"
     inkscape:cx="2310"
     inkscape:cy="-270.25"
     inkscape:window-width="3486"
     inkscape:window-height="2080"
     inkscape:window-x="77"
     inkscape:window-y="959"
     inkscape:window-maximized="0"
     inkscape:current-layer="layer3"
     showguides="true"><inkscape:grid
       type="xygrid"
       id="grid9727"
       empcolor="#000000"
       empopacity="0.17254902"
       color="#ffffff"
       opacity="0.15294118"
       units="mm"
       spacingx="1"
       spacingy="1"
       originx="-2192.8144"
       originy="768.92564"
       visible="true" /><sodipodi:guide
       position="-617.65346,161.1125"
       orientation="0.70710678,-0.70710678"
       id="guide5440"
       inkscape:locked="false" /><sodipodi:guide
       position="-550.18214,148.5551"
       orientation="-0.70710678,-0.70710678"
       id="guide12665"
       inkscape:locked="false" /></sodipodi:namedview><defs
     id="defs2"><inkscape:path-effect
       effect="copy_rotate"
       starting_point="619.7246,-173.36107"
       origin="610.24531,-173.36107"
       id="path-effect30357"
       is_visible="true"
       lpeversion="1.2"
       lpesatellites=""
       method="normal"
       num_copies="4"
       starting_angle="0"
       rotation_angle="90"
       gap="-0.01"
       copies_to_360="true"
       mirror_copies="false"
       split_items="false"
       link_styles="false" /><inkscape:path-effect
       effect="copy_rotate"
       starting_point="-15.143861,98.168686"
       origin="-45.143857,98.168686"
       id="path-effect27842"
       is_visible="true"
       lpeversion="1.2"
       lpesatellites=""
       method="normal"
       num_copies="4"
       starting_angle="0"
       rotation_angle="90"
       gap="-0.01"
       copies_to_360="true"
       mirror_copies="false"
       split_items="false"
       link_styles="false" /><inkscape:path-effect
       effect="copy_rotate"
       starting_point="-108.46893,34.177919"
       origin="-137.23845,34.177919"
       id="path-effect26112"
       is_visible="true"
       lpeversion="1.2"
       lpesatellites=""
       method="normal"
       num_copies="4"
       starting_angle="0"
       rotation_angle="90"
       gap="-0.01"
       copies_to_360="true"
       mirror_copies="false"
       split_items="false"
       link_styles="false" /><inkscape:path-effect
       effect="copy_rotate"
       starting_point="-39.33136,18"
       origin="-45,18"
       id="path-effect26100"
       is_visible="true"
       lpeversion="1.2"
       lpesatellites=""
       method="normal"
       num_copies="4"
       starting_angle="0"
       rotation_angle="90"
       gap="-0.01"
       copies_to_360="true"
       mirror_copies="false"
       split_items="false"
       link_styles="false" /><inkscape:path-effect
       effect="copy_rotate"
       starting_point="14.211541,31.02745"
       origin="11.123261,31.02745"
       id="path-effect26096"
       is_visible="true"
       lpeversion="1.2"
       lpesatellites=""
       method="normal"
       num_copies="4"
       starting_angle="0"
       rotation_angle="90"
       gap="-0.01"
       copies_to_360="true"
       mirror_copies="false"
       split_items="false"
       link_styles="false" /></defs><g
     inkscape:groupmode="layer"
     id="layer3"
     inkscape:label="Tiles"
     style="display:inline"
     transform="translate(-580.18214,203.44491)"><g
       id="g30403"
       inkscape:export-filename="g30403.png"
       inkscape:export-xdpi="96"
       inkscape:export-ydpi="96"><rect
         style="display:inline;fill:#ff0000;fill-opacity:1;fill-rule:evenodd;stroke:#800000;stroke-width:0.3;stroke-linecap:round;stroke-linejoin:round;stroke-dasharray:none;paint-order:markers fill stroke"
         id="rect27896"
         width="60"
         height="60"
         x="580.33215"
         y="-203.29491" /><g
         id="g28248"
         transform="translate(650.33213,-108.29491)"><path
           style="fill:#ffffff;stroke:none;stroke-width:0.565;stroke-linecap:butt;stroke-linejoin:miter;stroke-dasharray:none;stroke-opacity:1"
           d="m -61.674217,-42.959883 10.374352,-1.20532 8.092855,2.798063 c 0,0 7.361055,-0.430472 7.576291,-0.344377 0.215235,0.08609 7.662384,-2.970251 7.662384,-2.970251 0,0 10.073022,2.066261 10.159117,1.894073 0.08609,-0.172188 -1.592743,-10.202163 -1.592743,-10.202163 l 2.755014,-6.973631 0.60266,-6.284877 -1.20532,-6.112688 -2.281496,-4.649088 1.93712,-10.159116 -10.84787,1.980166 -9.986928,-3.443766 -8.996845,0.774844 -3.917286,2.927205 -10.675681,-1.980166 1.764931,10.761775 -2.324544,4.735182 -1.377507,7.877619 1.420554,7.318008 2.36759,3.314626 z"
           id="path26226" /><path
           id="path26166"
           style="fill:#ffff00;fill-opacity:1;fill-rule:evenodd;stroke:#803300;stroke-width:0.365;stroke-linecap:round;stroke-linejoin:round;stroke-dasharray:none;paint-order:markers fill stroke"
           d="m -39.999832,-89.654053 a 24.654126,24.654126 0 0 0 -12.413373,3.357004 l -10.364598,-1.480755 1.480751,10.364601 a 24.654126,24.654126 0 0 0 -3.357,12.413036 24.654126,24.654126 0 0 0 3.357,12.413372 l -1.480751,10.364263 10.364262,-1.480417 a 24.654126,24.654126 0 0 0 12.413709,3.357002 24.654126,24.654126 0 0 0 12.413372,-3.357002 l 10.364263,1.480417 -1.480753,-10.364263 a 24.654126,24.654126 0 0 0 3.357001,-12.413372 24.654126,24.654126 0 0 0 -3.356664,-12.415391 l 1.480416,-10.362246 -10.362245,1.480419 a 24.654126,24.654126 0 0 0 -12.41539,-3.356668 z m 0,1.876249 a 22.777795,22.777795 0 0 1 11.470371,3.101411 l 9.573609,-1.367755 -1.367754,9.573609 a 22.777795,22.777795 0 0 1 3.101409,11.470372 22.777795,22.777795 0 0 1 -3.101745,11.46869 l 1.36809,9.57529 -9.57529,-1.367755 a 22.777795,22.777795 0 0 1 -11.46869,3.101746 22.777795,22.777795 0 0 1 -11.469026,-3.101746 l -9.57529,1.367755 1.368092,-9.57529 a 22.777795,22.777795 0 0 1 -3.101747,-11.46869 22.777795,22.777795 0 0 1 3.101747,-11.468354 l -1.368092,-9.575627 9.575626,1.368091 a 22.777795,22.777795 0 0 1 11.46869,-3.101747 z" /></g><g
         id="g26108"
         transform="matrix(0.08039747,0,0,0.08039649,621.09255,-176.04266)"
         style="fill:#ff0000;stroke:#800000;stroke-width:3.73148;stroke-dasharray:none"
         inkscape:path-effect="#path-effect26112"
         class="UnoptimicedTransforms"><g
           id="g26104"
           style="fill:#ff0000;stroke:#800000;stroke-width:4.43711;stroke-dasharray:none"
           transform="matrix(0.91666735,0,0,0.77152825,-100.57305,60.181355)"><path
             style="fill:#ff0000;stroke:#800000;stroke-width:4.43711;stroke-linecap:butt;stroke-linejoin:miter;stroke-dasharray:none;stroke-opacity:1"
             d="m -39.680163,-36.674089 26.002531,-30.812247 2.705466,-4.659413 1.8036437,-8.867915 -4.2085017,-8.417002 -8.410524,-4.734057 -9.352703,0.318844 -9.087004,6.164281 -6.323703,-4.995193 -7.652213,-1.913054 -7.599071,1.859912 -6.270561,5.314038 -2.603879,7.227088 0.584544,4.516932 2.975861,7.333369 7.386511,9.405845 z m -2.818416,2.591959 -25.933638,-30.8941 -3.921672,-3.214416 -7.463827,-2.142943 -7.084309,5.000201 -3.984498,9.992703 0.268361,11.112124 5.188269,10.796441 -4.204287,7.513312 -1.610154,9.091739 1.565426,9.0286007 4.472648,7.45017248 6.082798,3.09371802 3.801751,-0.6945078 6.172251,-3.5356769 7.916585,-8.7760535 z m 2.181565,3.348613 -26.002531,30.81224738 -2.705466,4.65941302 -1.803643,8.8679146 4.208501,8.417002 8.410524,4.734057 9.352703,-0.318844 9.087004,-6.164281 6.323703,4.995193 7.652213,1.913054 7.599071,-1.859912 6.270561,-5.314038 2.6038793,-7.227088 L -9.9050387,8.2642694 -12.8809,0.93090038 -20.267411,-8.4749446 Z m 2.818416,-2.591959 25.933638,30.8941008 3.921672,3.21441544 7.46382749,2.14294326 7.08430911,-5.0002007 3.9844974,-9.9927028 -0.26836,-11.112124 -5.1882695,-10.796442 4.2042869,-7.513311 1.6101536,-9.09174 -1.5654257,-9.0286 -4.4726481,-7.450173 -6.08279826,-3.093718 -3.80175054,0.694508 -6.1722514,3.535677 -7.916585,8.776054 z"
             id="path26102"
             inkscape:original-d="m -39.680163,-36.674089 26.002531,-30.812247 2.705466,-4.659413 1.8036437,-8.867915 -4.2085017,-8.417002 -8.410524,-4.734057 -9.352703,0.318844 -9.087004,6.164281 -6.323703,-4.995193 -7.652213,-1.913054 -7.599071,1.859912 -6.270561,5.314038 -2.603879,7.227088 0.584544,4.516932 2.975861,7.333369 7.386511,9.405845 z" /></g><path
           id="path26106"
           style="fill:#ff0000;fill-opacity:1;fill-rule:evenodd;stroke:#800000;stroke-width:3.73148;stroke-linecap:round;stroke-linejoin:round;stroke-dasharray:none;paint-order:markers fill stroke"
           d="m -150.239,-13.113741 c -8.82718,-8.6e-5 -15.77437,5.8284182 -15.77442,13.01829821 0.004,2.91638199 1.21034,5.74718099 3.42534,8.03855299 8.12062,8.4879748 16.70942,16.6953918 25.34963,25.2348088 9.16538,-8.486865 23.41872,-23.2038828 25.1322,-25.0131308 1.60098,-1.998366 3.63119,-5.247469 3.63187,-8.26023099 -5e-5,-7.18988001 -6.93744,-13.01838421 -15.76462,-13.01829821 -5.03032,0.0033 -9.98476,1.720385 -13,5.0000032 -3.47198,-3.1115622 -8.8924,-4.9378502 -13,-5.0000032 z m 26,1.000002 c 10.98772,-0.119809 19.82376,10.5956112 10.00536,20.5125622 -7.66845,7.5793508 -15.33672,15.1588908 -23.00529,22.7381598 -7.51427,-7.426618 -15.02833,-14.853683 -22.54295,-22.2800548 -10.7679,-10.034863 -1.3301,-20.9348632 9.54288,-20.9706672 4.34517,-0.01434 9.07369,1.856603 13,6.0000022 3.86687,-4.0813482 8.70045,-5.9531102 13,-6.0000022 z m -60.29111,59.292208 c -9e-5,8.82718 5.82842,15.77437 13.0183,15.77442 2.91638,-0.004 5.74718,-1.21034 8.03855,-3.42534 8.48798,-8.12062 16.69539,-16.70942 25.23481,-25.34963 -8.48686,-9.16538 -23.20388,-23.41872 -25.01313,-25.1322 -1.99837,-1.60098 -5.24747,-3.63119 -8.26023,-3.63187 -7.18988,5e-5 -13.01839,6.93744 -13.0183,15.76462 0.003,5.03032 1.72039,9.98476 5,13 -3.11156,3.47198 -4.93785,8.8924 -5,13 z m 1,-26 c -0.11981,-10.98772 10.59561,-19.82376 20.51256,-10.00536 7.57936,7.66845 15.1589,15.33672 22.73816,23.00529 -7.42661,7.51427 -14.85368,15.02833 -22.28005,22.54295 -10.03486,10.7679 -20.93486,1.3301 -20.97067,-9.54288 -0.0143,-4.34517 1.85661,-9.07369 6,-13 -4.08134,-3.86687 -5.95311,-8.70045 -6,-13 z m 59.29221,60.29111 c 8.82718,8.6e-5 15.77437,-5.828418 15.77442,-13.018298 -0.004,-2.916382 -1.21034,-5.747181 -3.42534,-8.038553 -8.12062,-8.487975 -16.70942,-16.695392 -25.34963,-25.234809 -9.16538,8.486865 -23.41872,23.203883 -25.1322,25.013131 -1.60098,1.998366 -3.63119,5.247469 -3.63187,8.260231 5e-5,7.18988 6.93744,13.018384 15.76462,13.018298 5.03032,-0.0033 9.98476,-1.720385 13,-5.000003 3.47198,3.111562 8.8924,4.93785 13,5.000003 z m -26,-1.000002 c -10.98772,0.119809 -19.82376,-10.595611 -10.00536,-20.512562 7.66845,-7.579351 15.33672,-15.158891 23.00529,-22.73816 7.51427,7.426618 15.02833,14.853683 22.54295,22.280055 10.7679,10.034863 1.3301,20.934863 -9.54288,20.970667 -4.34517,0.01434 -9.07369,-1.856603 -13,-6.000002 -3.86687,4.081348 -8.70045,5.95311 -13,6.000002 z m 60.29111,-59.292208 c 8.6e-5,-8.82718 -5.828418,-15.77437 -13.0183,-15.77442 -2.91638,0.004 -5.74718,1.21034 -8.03855,3.42534 -8.48798,8.12062 -16.69539,16.70942 -25.23481,25.34963 8.48686,9.16538 23.20388,23.41872 25.01313,25.1322 1.99837,1.60098 5.24747,3.63119 8.26023,3.63187 7.189882,-5e-5 13.018386,-6.93744 13.0183,-15.76462 -0.0033,-5.03032 -1.720385,-9.98476 -5.000003,-13 3.111562,-3.47198 4.93785,-8.8924 5.000003,-13 z m -1.000002,26 c 0.119809,10.98772 -10.595608,19.82376 -20.512558,10.00536 -7.57935,-7.66845 -15.1589,-15.33672 -22.73816,-23.00529 7.42661,-7.51427 14.85368,-15.02833 22.28005,-22.54295 10.03486,-10.7679 20.934864,-1.3301 20.970668,9.54288 0.01434,4.34517 -1.856603,9.07369 -6.000002,13 4.081348,3.86687 5.95311,8.70045 6.000002,13 z"
           sodipodi:nodetypes="cccccccccscccscs"
           inkscape:original-d="m -150.239,-13.113741 c -8.82718,-8.6e-5 -15.77437,5.8284182 -15.77442,13.01829821 0.004,2.91638199 1.21034,5.74718099 3.42534,8.03855299 8.12062,8.4879748 16.70942,16.6953918 25.34963,25.2348088 9.16538,-8.486865 23.41872,-23.2038828 25.1322,-25.0131308 1.60098,-1.998366 3.63119,-5.247469 3.63187,-8.26023099 -5e-5,-7.18988001 -6.93744,-13.01838421 -15.76462,-13.01829821 -5.03032,0.0033 -9.98476,1.720385 -13,5.0000032 -3.47198,-3.1115622 -8.8924,-4.9378502 -13,-5.0000032 z m 26,1.000002 c 10.98772,-0.119809 19.82376,10.5956112 10.00536,20.5125622 -7.66845,7.5793508 -15.33672,15.1588908 -23.00529,22.7381598 -7.51427,-7.426618 -15.02833,-14.853683 -22.54295,-22.2800548 -10.7679,-10.034863 -1.3301,-20.9348632 9.54288,-20.9706672 4.34517,-0.01434 9.07369,1.856603 13,6.0000022 3.86687,-4.0813482 8.70045,-5.9531102 13,-6.0000022 z" /></g><g
         id="g30355"
         inkscape:path-effect="#path-effect30357"
         class="UnoptimicedTransforms"><g
           id="g28185"
           transform="translate(650.33213,-108.29491)"><path
             style="opacity:1;fill:#ff6600;fill-opacity:1;fill-rule:evenodd;stroke:none;stroke-width:0.365001;stroke-linecap:round;stroke-linejoin:round;stroke-dasharray:none;paint-order:markers fill stroke"
             id="path28115"
             d="m -32.562347,-58.592438 c 0,0.554442 -0.449465,1.003907 -1.003907,1.003907 -0.554442,0 -1.003906,-0.449465 -1.003906,-1.003907 0,-0.554442 0.449464,-1.003906 1.003906,-1.003906 0.554442,0 1.003907,0.449464 1.003907,1.003906 z m -1.050751,-13.998195 c 0.554442,0 1.003907,0.449465 1.003907,1.003907 0,0.554442 -0.449465,1.003906 -1.003907,1.003906 -0.554442,0 -1.003906,-0.449464 -1.003906,-1.003906 0,-0.554442 0.449464,-1.003907 1.003906,-1.003907 z m -13.998195,1.050751 c 0,-0.554442 0.449465,-1.003907 1.003907,-1.003907 0.554442,0 1.003906,0.449465 1.003906,1.003907 0,0.554442 -0.449464,1.003906 -1.003906,1.003906 -0.554442,0 -1.003907,-0.449464 -1.003907,-1.003906 z m 1.050751,13.998195 c -0.554442,0 -1.003907,-0.449465 -1.003907,-1.003907 0,-0.554442 0.449465,-1.003906 1.003907,-1.003906 0.554442,0 1.003906,0.449464 1.003906,1.003906 0,0.554442 -0.449464,1.003907 -1.003906,1.003907 z"
             sodipodi:type="arc"
             sodipodi:cx="-33.566254"
             sodipodi:cy="-58.592438"
             sodipodi:rx="1.0039062"
             sodipodi:ry="1.0039062" /><path
             id="path28112"
             style="opacity:1;fill:#800000;fill-rule:evenodd;stroke-width:0.365002;stroke-linecap:round;stroke-linejoin:round;paint-order:markers fill stroke"
             d="m -30.375377,-52.315392 c -1.70019,-1.036701 -2.393914,-5.475038 -2.391185,-5.474559 0,0 4.444763,0.686806 5.474556,2.391186 0.501122,0.829394 0.478908,2.217137 -0.209074,2.899557 -0.681583,0.676129 -2.054605,0.683627 -2.874297,0.183816 z m 3.039325,-22.462211 c -1.036701,1.70019 -5.475038,2.393914 -5.474559,2.391185 0,0 0.686806,-4.444763 2.391186,-5.474556 0.829394,-0.501122 2.217137,-0.478908 2.899557,0.209074 0.676129,0.681583 0.683627,2.054605 0.183816,2.874297 z m -22.462211,-3.039325 c 1.70019,1.036701 2.393914,5.475038 2.391185,5.474559 0,0 -4.444763,-0.686806 -5.474556,-2.391186 -0.501122,-0.829394 -0.478908,-2.217137 0.209074,-2.899557 0.681583,-0.676129 2.054605,-0.683627 2.874297,-0.183816 z m -3.039325,22.462211 c 1.036701,-1.70019 5.475038,-2.393914 5.474559,-2.391185 0,0 -0.686806,4.444763 -2.391186,5.474556 -0.829394,0.501122 -2.217137,0.478908 -2.899557,-0.209074 -0.676129,-0.681583 -0.683627,-2.054605 -0.183816,-2.874297 z"
             sodipodi:nodetypes="acaaa"
             inkscape:original-d="m -30.375377,-52.315392 c -1.70019,-1.036701 -2.393914,-5.475038 -2.391185,-5.474559 0,0 4.444763,0.686806 5.474556,2.391186 0.501122,0.829394 0.478908,2.217137 -0.209074,2.899557 -0.681583,0.676129 -2.054605,0.683627 -2.874297,0.183816 z" /><path
             id="path28169"
             style="opacity:1;fill:#800000;fill-rule:evenodd;stroke-width:0.365001;stroke-linecap:round;stroke-linejoin:round;paint-order:markers fill stroke"
             d="m -34.931278,-53.792561 c -0.272663,-1.286718 1.545084,-3.631894 1.54609,-3.630363 0,0 1.684868,2.446624 1.332878,3.713941 -0.171282,0.616708 -0.84804,1.235102 -1.487743,1.213931 -0.633779,-0.02089 -1.259772,-0.677158 -1.391225,-1.297509 z m 6.118057,-16.429141 c -1.286718,0.272663 -3.631894,-1.545084 -3.630363,-1.54609 0,0 2.446624,-1.684868 3.713941,-1.332878 0.616708,0.171282 1.235102,0.84804 1.213931,1.487743 -0.02089,0.633779 -0.677158,1.259772 -1.297509,1.391225 z m -16.429141,-6.118057 c 0.272663,1.286718 -1.545084,3.631894 -1.54609,3.630363 0,0 -1.684868,-2.446624 -1.332878,-3.713941 0.171282,-0.616708 0.84804,-1.235102 1.487743,-1.213931 0.633779,0.02089 1.259772,0.677158 1.391225,1.297509 z m -6.118057,16.429141 c 1.286718,-0.272663 3.631894,1.545084 3.630363,1.54609 0,0 -2.446624,1.684868 -3.713941,1.332878 -0.616708,-0.171282 -1.235102,-0.84804 -1.213931,-1.487743 0.02089,-0.633779 0.677158,-1.259772 1.297509,-1.391225 z"
             sodipodi:nodetypes="acaaa"
             inkscape:original-d="m -34.931278,-53.792561 c -0.272663,-1.286718 1.545084,-3.631894 1.54609,-3.630363 0,0 1.684868,2.446624 1.332878,3.713941 -0.171282,0.616708 -0.84804,1.235102 -1.487743,1.213931 -0.633779,-0.02089 -1.259772,-0.677158 -1.391225,-1.297509 z" /><path
             id="path28179"
             style="opacity:1;fill:#800000;fill-rule:evenodd;stroke-width:0.365001;stroke-linecap:round;stroke-linejoin:round;paint-order:markers fill stroke"
             d="m -28.776584,-59.914182 c -1.286718,-0.272663 -3.631894,1.545084 -3.630363,1.54609 0,0 2.446624,1.684868 3.713941,1.332878 0.616708,-0.171282 1.235102,-0.84804 1.213931,-1.487743 -0.02089,-0.633779 -0.677158,-1.259772 -1.297509,-1.391225 z m -6.158258,-16.462214 c -0.272663,1.286718 1.545084,3.631894 1.54609,3.630363 0,0 1.684868,-2.446624 1.332878,-3.713941 -0.171282,-0.616708 -0.84804,-1.235102 -1.487743,-1.213931 -0.633779,0.02089 -1.259772,0.677158 -1.391225,1.297509 z m -16.462214,6.158258 c 1.286718,0.272663 3.631894,-1.545084 3.630363,-1.54609 0,0 -2.446624,-1.684868 -3.713941,-1.332878 -0.616708,0.171282 -1.235102,0.84804 -1.213931,1.487743 0.02089,0.633779 0.677158,1.259772 1.297509,1.391225 z m 6.158258,16.462214 c 0.272663,-1.286718 -1.545084,-3.631894 -1.54609,-3.630363 0,0 -1.684868,2.446624 -1.332878,3.713941 0.171282,0.616708 0.84804,1.235102 1.487743,1.213931 0.633779,-0.02089 1.259772,-0.677158 1.391225,-1.297509 z"
             sodipodi:nodetypes="acaaa"
             inkscape:original-d="m -28.776584,-59.914182 c -1.286718,-0.272663 -3.631894,1.545084 -3.630363,1.54609 0,0 2.446624,1.684868 3.713941,1.332878 0.616708,-0.171282 1.235102,-0.84804 1.213931,-1.487743 -0.02089,-0.633779 -0.677158,-1.259772 -1.297509,-1.391225 z" /></g><path
           style="fill:#ff6600;fill-opacity:1;fill-rule:evenodd;stroke:none;stroke-width:0.365001;stroke-linecap:round;stroke-linejoin:round;stroke-dasharray:none;paint-order:markers fill stroke"
           id="path28187"
           d="m 627.84255,-157.04439 c 0,0.91329 -0.74036,1.65365 -1.65365,1.65365 -0.91328,0 -1.65364,-0.74036 -1.65364,-1.65365 0,-0.91328 0.74036,-1.65364 1.65364,-1.65364 0.91329,0 1.65365,0.74036 1.65365,1.65364 z m -1.28056,-33.91392 c 0.91329,0 1.65365,0.74036 1.65365,1.65365 0,0.91328 -0.74036,1.65364 -1.65365,1.65364 -0.91328,0 -1.65364,-0.74036 -1.65364,-1.65364 0,-0.91329 0.74036,-1.65365 1.65364,-1.65365 z m -33.91392,1.28056 c 0,-0.91329 0.74036,-1.65365 1.65365,-1.65365 0.91328,0 1.65364,0.74036 1.65364,1.65365 0,0.91328 -0.74036,1.65364 -1.65364,1.65364 -0.91329,0 -1.65365,-0.74036 -1.65365,-1.65364 z m 1.28056,33.91392 c -0.91329,0 -1.65365,-0.74036 -1.65365,-1.65365 0,-0.91328 0.74036,-1.65364 1.65365,-1.65364 0.91328,0 1.65364,0.74036 1.65364,1.65364 0,0.91329 -0.74036,1.65365 -1.65364,1.65365 z"
           sodipodi:type="arc"
           sodipodi:cx="626.1889"
           sodipodi:cy="-157.04439"
           sodipodi:rx="1.6536458"
           sodipodi:ry="1.6536458" /><g
           id="g28223"
           transform="translate(650.33213,-108.29491)"><g
             id="g28198"
             transform="rotate(-15.141002,-32.445607,-34.186059)"><path
               style="opacity:1;fill:#ff6600;fill-opacity:1;fill-rule:evenodd;stroke:none;stroke-width:0.365001;stroke-linecap:round;stroke-linejoin:round;stroke-dasharray:none;paint-order:markers fill stroke"
               id="circle28189"
               d="m -31.763545,-45.790459 c 0,0.365314 -0.296145,0.661459 -0.661458,0.661459 -0.365313,0 -0.661458,-0.296145 -0.661458,-0.661459 0,-0.365313 0.296145,-0.661458 0.661458,-0.661458 0.365313,0 0.661458,0.296145 0.661458,0.661458 z m 20.207299,-20.191856 c 0.365313,0 0.661458,0.296145 0.661458,0.661458 0,0.365313 -0.296145,0.661458 -0.661458,0.661458 -0.365313,0 -0.661458,-0.296145 -0.661458,-0.661458 0,-0.365313 0.296145,-0.661458 0.661458,-0.661458 z m -20.191857,-20.207299 c 0,-0.365313 0.296145,-0.661458 0.661459,-0.661458 0.365313,0 0.661458,0.296145 0.661458,0.661458 0,0.365313 -0.296145,0.661458 -0.661458,0.661458 -0.365314,0 -0.661459,-0.296145 -0.661459,-0.661458 z m -20.207298,20.191857 c -0.365314,0 -0.661459,-0.296145 -0.661459,-0.661459 0,-0.365313 0.296145,-0.661458 0.661459,-0.661458 0.365313,0 0.661458,0.296145 0.661458,0.661458 0,0.365314 -0.296145,0.661459 -0.661458,0.661459 z"
               sodipodi:type="arc"
               sodipodi:cx="-32.425003"
               sodipodi:cy="-45.790459"
               sodipodi:rx="0.66145825"
               sodipodi:ry="0.66145825" /><path
               style="opacity:1;fill:#ff6600;fill-opacity:1;fill-rule:evenodd;stroke:none;stroke-width:0.365001;stroke-linecap:round;stroke-linejoin:round;stroke-dasharray:none;paint-order:markers fill stroke"
               id="circle28191"
               d="m -32.999999,-44.338543 c 0,0.365313 -0.296145,0.661458 -0.661458,0.661458 -0.365313,0 -0.661458,-0.296145 -0.661458,-0.661458 0,-0.365313 0.296145,-0.661458 0.661458,-0.661458 0.365313,0 0.661458,0.296145 0.661458,0.661458 z m 22.895669,-20.407318 c 0.3653129,0 0.6614579,0.296145 0.6614579,0.661458 0,0.365313 -0.296145,0.661458 -0.6614579,0.661458 -0.365314,0 -0.661459,-0.296145 -0.661459,-0.661458 0,-0.365313 0.296145,-0.661458 0.661459,-0.661458 z M -30.511649,-87.64153 c 0,-0.365313 0.296145,-0.661458 0.661459,-0.661458 0.365313,0 0.661458,0.296145 0.661458,0.661458 0,0.365314 -0.296145,0.661459 -0.661458,0.661459 -0.365314,0 -0.661459,-0.296145 -0.661459,-0.661459 z m -22.895668,20.407319 c -0.365313,0 -0.661458,-0.296145 -0.661458,-0.661459 0,-0.365313 0.296145,-0.661458 0.661458,-0.661458 0.365313,0 0.661458,0.296145 0.661458,0.661458 0,0.365314 -0.296145,0.661459 -0.661458,0.661459 z"
               sodipodi:type="arc"
               sodipodi:cx="-33.661457"
               sodipodi:cy="-44.338543"
               sodipodi:rx="0.66145825"
               sodipodi:ry="0.66145825" /><path
               style="opacity:1;fill:#ff6600;fill-opacity:1;fill-rule:evenodd;stroke:none;stroke-width:0.365001;stroke-linecap:round;stroke-linejoin:round;stroke-dasharray:none;paint-order:markers fill stroke"
               id="circle28193"
               d="m -30.492144,-44.361931 c 0,0.365313 -0.296145,0.661458 -0.661459,0.661458 -0.365313,0 -0.661458,-0.296145 -0.661458,-0.661458 0,-0.365313 0.296145,-0.661458 0.661458,-0.661458 0.365314,0 0.661459,0.296145 0.661459,0.661458 z m 20.364426,-22.891785 c 0.365313,0 0.661458,0.296145 0.661458,0.661459 0,0.365313 -0.296145,0.661458 -0.661458,0.661458 -0.365314,0 -0.661459,-0.296145 -0.661459,-0.661458 0,-0.365314 0.296145,-0.661459 0.661459,-0.661459 z m -22.891785,-20.364426 c 0,-0.365313 0.296145,-0.661458 0.661458,-0.661458 0.365313,0 0.661458,0.296145 0.661458,0.661458 0,0.365314 -0.296145,0.661458 -0.661458,0.661458 -0.365313,0 -0.661458,-0.296144 -0.661458,-0.661458 z m -20.364426,22.891785 c -0.365314,0 -0.661458,-0.296145 -0.661458,-0.661458 0,-0.365313 0.296144,-0.661458 0.661458,-0.661458 0.365313,0 0.661458,0.296145 0.661458,0.661458 0,0.365313 -0.296145,0.661458 -0.661458,0.661458 z"
               sodipodi:type="arc"
               sodipodi:cx="-31.153603"
               sodipodi:cy="-44.361931"
               sodipodi:rx="0.66145825"
               sodipodi:ry="0.66145825" /></g><g
             id="g28213"
             transform="rotate(-73.668472,-36.095937,-61.125687)"><path
               style="opacity:1;fill:#ff6600;fill-opacity:1;fill-rule:evenodd;stroke:none;stroke-width:0.365001;stroke-linecap:round;stroke-linejoin:round;stroke-dasharray:none;paint-order:markers fill stroke"
               id="circle28207"
               d="m -31.763545,-45.790459 c 0,0.365314 -0.296145,0.661459 -0.661458,0.661459 -0.365313,0 -0.661458,-0.296145 -0.661458,-0.661459 0,-0.365313 0.296145,-0.661458 0.661458,-0.661458 0.365313,0 0.661458,0.296145 0.661458,0.661458 z m 18.599993,-21.946252 c 0.365313,0 0.661458,0.296145 0.661458,0.661458 0,0.365313 -0.296145,0.661458 -0.661458,0.661458 -0.365314,0 -0.661459,-0.296145 -0.661459,-0.661458 0,-0.365313 0.296145,-0.661458 0.661459,-0.661458 z m -21.946253,-18.599993 c 0,-0.365313 0.296145,-0.661458 0.661458,-0.661458 0.365314,0 0.661458,0.296145 0.661458,0.661458 0,0.365313 -0.296144,0.661458 -0.661458,0.661458 -0.365313,0 -0.661458,-0.296145 -0.661458,-0.661458 z m -18.599993,21.946253 c -0.365313,0 -0.661458,-0.296145 -0.661458,-0.661458 0,-0.365314 0.296145,-0.661459 0.661458,-0.661459 0.365314,0 0.661459,0.296145 0.661459,0.661459 0,0.365313 -0.296145,0.661458 -0.661459,0.661458 z"
               sodipodi:type="arc"
               sodipodi:cx="-32.425003"
               sodipodi:cy="-45.790459"
               sodipodi:rx="0.66145825"
               sodipodi:ry="0.66145825" /><path
               style="opacity:1;fill:#ff6600;fill-opacity:1;fill-rule:evenodd;stroke:none;stroke-width:0.365001;stroke-linecap:round;stroke-linejoin:round;stroke-dasharray:none;paint-order:markers fill stroke"
               id="circle28209"
               d="m -32.999999,-44.338543 c 0,0.365313 -0.296145,0.661458 -0.661458,0.661458 -0.365313,0 -0.661458,-0.296145 -0.661458,-0.661458 0,-0.365313 0.296145,-0.661458 0.661458,-0.661458 0.365313,0 0.661458,0.296145 0.661458,0.661458 z m 21.288362,-22.161714 c 0.365314,0 0.661459,0.296145 0.661459,0.661458 0,0.365313 -0.296145,0.661458 -0.661459,0.661458 -0.365313,0 -0.661458,-0.296145 -0.661458,-0.661458 0,-0.365313 0.296145,-0.661458 0.661458,-0.661458 z M -33.873351,-87.78862 c 0,-0.365313 0.296145,-0.661458 0.661458,-0.661458 0.365314,0 0.661458,0.296145 0.661458,0.661458 0,0.365314 -0.296144,0.661459 -0.661458,0.661459 -0.365313,0 -0.661458,-0.296145 -0.661458,-0.661459 z m -21.288362,22.161715 c -0.365314,0 -0.661458,-0.296145 -0.661458,-0.661458 0,-0.365314 0.296144,-0.661459 0.661458,-0.661459 0.365313,0 0.661458,0.296145 0.661458,0.661459 0,0.365313 -0.296145,0.661458 -0.661458,0.661458 z"
               sodipodi:type="arc"
               sodipodi:cx="-33.661457"
               sodipodi:cy="-44.338543"
               sodipodi:rx="0.66145825"
               sodipodi:ry="0.66145825" /><path
               style="opacity:1;fill:#ff6600;fill-opacity:1;fill-rule:evenodd;stroke:none;stroke-width:0.365001;stroke-linecap:round;stroke-linejoin:round;stroke-dasharray:none;paint-order:markers fill stroke"
               id="circle28211"
               d="m -30.492144,-44.361931 c 0,0.365313 -0.296145,0.661458 -0.661459,0.661458 -0.365313,0 -0.661458,-0.296145 -0.661458,-0.661458 0,-0.365313 0.296145,-0.661458 0.661458,-0.661458 0.365314,0 0.661459,0.296145 0.661459,0.661458 z m 18.757119,-24.646181 c 0.365314,0 0.661459,0.296145 0.661459,0.661458 0,0.365314 -0.296145,0.661459 -0.661459,0.661459 -0.365313,0 -0.661458,-0.296145 -0.661458,-0.661459 0,-0.365313 0.296145,-0.661458 0.661458,-0.661458 z m -24.64618,-18.75712 c 0,-0.365313 0.296144,-0.661458 0.661458,-0.661458 0.365313,0 0.661458,0.296145 0.661458,0.661458 0,0.365314 -0.296145,0.661459 -0.661458,0.661459 -0.365314,0 -0.661458,-0.296145 -0.661458,-0.661459 z m -18.75712,24.646181 c -0.365314,0 -0.661459,-0.296145 -0.661459,-0.661458 0,-0.365313 0.296145,-0.661458 0.661459,-0.661458 0.365313,0 0.661458,0.296145 0.661458,0.661458 0,0.365313 -0.296145,0.661458 -0.661458,0.661458 z"
               sodipodi:type="arc"
               sodipodi:cx="-31.153603"
               sodipodi:cy="-44.361931"
               sodipodi:rx="0.66145825"
               sodipodi:ry="0.66145825" /></g></g></g><g
         id="g28253"
         transform="translate(650.33213,-108.29491)"><path
           id="path27807"
           style="fill:#803300;fill-rule:evenodd;stroke:none;stroke-width:0.1;stroke-linecap:round;stroke-linejoin:round"
           d="m -39.999904,-81.891688 c -4.062326,0 -5.347219,11.785483 -5.347219,11.785483 0,0 -11.309392,1.037122 -11.309391,5.099451 1e-6,4.062328 11.521353,5.52243 11.521353,5.52243 0,0 1.063577,11.070431 5.125905,11.07043 4.062331,-10e-7 5.144513,-11.496295 5.144513,-11.496295 0,0 11.507563,-1.03139 11.507565,-5.093718 1e-6,-4.062328 -11.390315,-5.24451 -11.390315,-5.24451 0,0 -1.190082,-11.643271 -5.252411,-11.643271 z m 0,1.043218 c 3.24324,-2e-6 4.46804,11.377527 4.46804,11.377527 0,0 11.445852,1.218352 11.445851,4.461591 -10e-7,3.243239 -11.496295,4.417692 -11.496295,4.417692 0,0 -1.174453,11.518642 -4.417692,11.518642 -3.259415,0 -4.486648,-11.411538 -4.486648,-11.411538 0,0 -11.420794,-1.249954 -11.420794,-4.493194 0,-3.243238 11.366845,-4.562847 11.366845,-4.562847 0,0 1.297455,-11.307873 4.540693,-11.307873 z"
           sodipodi:nodetypes="scscscscsscscscscs" /><path
           id="path27809"
           style="fill:#803300;fill-rule:evenodd;stroke:none;stroke-width:0.1;stroke-linecap:round;stroke-linejoin:round"
           d="m -39.999999,-82.908406 c -4.486235,0 -5.858324,12.079088 -5.858324,12.079088 0,0 -12.050086,1.343083 -12.050085,5.829321 1e-6,4.486236 12.084889,5.83512 12.084889,5.83512 0,0 1.337283,12.07329 5.82352,12.073289 4.486239,-3e-6 5.952205,-11.960306 5.952205,-11.960306 0,0 11.956202,-1.461868 11.956204,-5.948103 0,-4.486237 -12.003677,-5.893129 -12.003677,-5.893129 0,0 -1.418496,-12.01528 -5.904732,-12.01528 z m 0,0.716292 c 3.581676,-2e-6 5.014415,12.177702 5.014415,12.177702 0,0 12.177703,1.43274 12.177702,5.014415 -1e-6,3.581674 -12.177702,5.014414 -12.177702,5.014414 0,0 -1.432741,12.177703 -5.014415,12.177703 -3.599539,0 -5.014415,-12.177703 -5.014415,-12.177703 0,0 -12.177702,-1.43274 -12.177702,-5.014414 0,-3.581675 12.177702,-5.014415 12.177702,-5.014415 0,0 1.432742,-12.177701 5.014415,-12.177702 z"
           sodipodi:nodetypes="scscscscsscscscscs" /><path
           id="path27811"
           style="fill:#ffff00;fill-rule:evenodd;stroke:none;stroke-width:0.0999999;stroke-linecap:round;stroke-linejoin:round"
           d="m -39.999997,-82.354833 c -4.347559,0 -5.553562,11.801276 -5.553562,11.801276 0,0 -11.801276,1.205999 -11.801275,5.553562 10e-7,4.347562 11.801275,5.553562 11.801275,5.553562 0,0 1.206,11.801277 5.553562,11.801276 4.347564,-1e-6 5.553563,-11.801276 5.553563,-11.801276 0,0 11.801273,-1.206001 11.801274,-5.553562 3e-6,-4.347562 -11.801274,-5.553562 -11.801274,-5.553562 0,0 -1.206001,-11.801276 -5.553563,-11.801276 z m 0,0.694151 c 3.470962,-3e-6 4.859412,11.801274 4.859412,11.801274 0,0 11.801277,1.388453 11.801276,4.859413 -1e-6,3.470961 -11.801276,4.859413 -11.801276,4.859413 0,0 -1.388451,11.801274 -4.859412,11.801274 -3.488273,0 -4.859412,-11.801274 -4.859412,-11.801274 0,0 -11.801276,-1.388452 -11.801276,-4.859413 0,-3.47096 11.801276,-4.859413 11.801276,-4.859413 0,0 1.388452,-11.801273 4.859412,-11.801274 z" /></g><g
         id="g26092"
         transform="matrix(0.1996632,0,0,0.1996632,619.31697,-192.89558)"
         style="stroke-width:2.00337;stroke-dasharray:none"
         inkscape:path-effect="#path-effect27842"
         class="UnoptimicedTransforms"><path
           id="path26084"
           style="opacity:1;fill:#ff0000;fill-opacity:1;fill-rule:evenodd;stroke:#800000;stroke-width:0.473062;stroke-linecap:round;stroke-linejoin:round;stroke-dasharray:none;paint-order:markers fill stroke"
           d="M 9.864688,25.022242 C 8.785911,24.303057 7.527338,25.741427 8.246522,27 c 1.106193,1.935836 2.407616,4.995058 2.876714,5.933286 C 11.635879,31.908022 12.966545,28.808547 14,27 c 0.719185,-1.258573 -0.539388,-2.696943 -1.618165,-1.977758 0,-0.539389 -0.539389,-1.078777 -1.258574,-1.078777 -0.719184,0 -1.258573,0.539388 -1.258573,1.078777 z m -4.746635,7.263781 c -0.719185,1.078777 0.719185,2.33735 1.977758,1.618166 1.935836,-1.106193 4.995058,-2.407616 5.933286,-2.876714 -1.025264,-0.512643 -4.124739,-1.843309 -5.933286,-2.876764 -1.258573,-0.719185 -2.696943,0.539388 -1.977758,1.618165 -0.539389,0 -1.078777,0.539389 -1.078777,1.258574 0,0.719184 0.539388,1.258573 1.078777,1.258573 z m 7.263781,4.746635 C 13.460611,37.751843 14.719184,36.313473 14,35.0549 12.893807,33.119064 11.592384,30.059842 11.123286,29.121614 10.610643,30.146878 9.279977,33.246353 8.246522,35.0549 c -0.719185,1.258573 0.539388,2.696943 1.618165,1.977758 0,0.539389 0.539389,1.078777 1.258574,1.078777 0.719184,0 1.258573,-0.539388 1.258573,-1.078777 z m 4.746635,-7.263781 c 0.719185,-1.078777 -0.719185,-2.33735 -1.977758,-1.618166 -1.935836,1.106193 -4.995058,2.407616 -5.933286,2.876714 1.025264,0.512643 4.124739,1.843309 5.933286,2.876764 1.258573,0.719185 2.696943,-0.539388 1.977758,-1.618165 0.539389,0 1.078777,-0.539389 1.078777,-1.258574 0,-0.719184 -0.539388,-1.258573 -1.078777,-1.258573 z M -13.374113,50.71025 c -0.719185,1.078777 0.719185,2.33735 1.977758,1.618166 1.9358364,-1.106193 4.9950584,-2.407616 5.9332864,-2.876714 -1.025264,-0.512643 -4.124739,-1.843309 -5.9332864,-2.876764 -1.258573,-0.719185 -2.696943,0.539388 -1.977758,1.618165 -0.539389,0 -1.078777,0.539389 -1.078777,1.258574 0,0.719184 0.539388,1.258573 1.078777,1.258573 z m 7.2637814,4.746635 c 1.078777,0.719185 2.33735,-0.719185 1.618166,-1.977758 -1.106193,-1.935836 -2.407616,-4.995058 -2.876714,-5.933286 -0.512643,1.025264 -1.843309,4.124739 -2.8767644,5.933286 -0.719185,1.258573 0.5393884,2.696943 1.6181654,1.977758 0,0.539389 0.539389,1.078777 1.258574,1.078777 0.719184,0 1.258573,-0.539388 1.258573,-1.078777 z m 4.746635,-7.263781 c 0.71918496,-1.078777 -0.719185,-2.33735 -1.977758,-1.618166 -1.935836,1.106193 -4.995058,2.407616 -5.933286,2.876714 1.025264,0.512643 4.124739,1.843309 5.933286,2.876764 1.258573,0.719185 2.69694296,-0.539388 1.977758,-1.618165 0.53938896,0 1.07877696,-0.539389 1.07877696,-1.258574 0,-0.719184 -0.539388,-1.258573 -1.07877696,-1.258573 z m -7.263781,-4.746635 c -1.078777,-0.719185 -2.3373504,0.719185 -1.6181664,1.977758 1.1061934,1.935836 2.4076164,4.995058 2.8767144,5.933286 0.512643,-1.025264 1.843309,-4.124739 2.876764,-5.933286 0.719185,-1.258573 -0.539388,-2.696943 -1.618165,-1.977758 0,-0.539389 -0.539389,-1.078777 -1.258574,-1.078777 -0.719184,0 -1.258573,0.539388 -1.258573,1.078777 z M 12.313895,73.94905 c 1.078777,0.719185 2.33735,-0.719185 1.618166,-1.977758 -1.106193,-1.935836 -2.407616,-4.995058 -2.876714,-5.933286 -0.512643,1.025264 -1.8433089,4.124739 -2.8767639,5.933286 -0.719185,1.258573 0.539388,2.696943 1.618165,1.977758 0,0.539389 0.5393889,1.078777 1.2585739,1.078777 0.719184,0 1.258573,-0.539388 1.258573,-1.078777 z m 4.746635,-7.263781 c 0.719185,-1.078777 -0.719185,-2.33735 -1.977758,-1.618166 -1.935836,1.106193 -4.995058,2.407616 -5.9332859,2.876714 1.0252639,0.512643 4.1247389,1.843309 5.9332859,2.876764 1.258573,0.719185 2.696943,-0.539388 1.977758,-1.618165 0.539389,0 1.078777,-0.539389 1.078777,-1.258574 0,-0.719184 -0.539388,-1.258573 -1.078777,-1.258573 z M 9.7967491,61.938634 c -1.078777,-0.719185 -2.33735,0.719185 -1.618166,1.977758 1.106193,1.935836 2.4076159,4.995058 2.8767139,5.933286 0.512643,-1.025264 1.843309,-4.124739 2.876764,-5.933286 0.719185,-1.258573 -0.539388,-2.696943 -1.618165,-1.977758 0,-0.539389 -0.539389,-1.078777 -1.258574,-1.078777 -0.719184,0 -1.2585729,0.539388 -1.2585729,1.078777 z m -4.746635,7.263781 c -0.719185,1.078777 0.719185,2.33735 1.977758,1.618166 1.935836,-1.106193 4.9950579,-2.407616 5.9332859,-2.876714 -1.025264,-0.512643 -4.1247389,-1.843309 -5.9332859,-2.876764 -1.258573,-0.719185 -2.696943,0.539388 -1.977758,1.618165 -0.539389,0 -1.078777,0.539389 -1.078777,1.258574 0,0.719184 0.539388,1.258573 1.078777,1.258573 z M 35.552696,48.261043 c 0.719185,-1.078777 -0.719185,-2.33735 -1.977758,-1.618166 -1.935836,1.106193 -4.995058,2.407616 -5.933286,2.876714 1.025264,0.512643 4.124739,1.843309 5.933286,2.876764 1.258573,0.719185 2.696943,-0.539388 1.977758,-1.618165 0.539389,0 1.078777,-0.539389 1.078777,-1.258574 0,-0.719184 -0.539388,-1.258573 -1.078777,-1.258573 z m -7.263781,-4.746635 c -1.078777,-0.719185 -2.33735,0.719185 -1.618166,1.977758 1.106193,1.935836 2.407616,4.995058 2.876714,5.933286 0.512643,-1.025264 1.843309,-4.124739 2.876764,-5.933286 0.719185,-1.258573 -0.539388,-2.696943 -1.618165,-1.977758 0,-0.539389 -0.539389,-1.078777 -1.258574,-1.078777 -0.719184,0 -1.258573,0.539388 -1.258573,1.078777 z m -4.746635,7.263781 c -0.719185,1.078777 0.719185,2.33735 1.977758,1.618166 1.935836,-1.106193 4.995058,-2.407616 5.933286,-2.876714 -1.025264,-0.512643 -4.124739,-1.843309 -5.933286,-2.876764 -1.258573,-0.719185 -2.696943,0.539388 -1.977758,1.618165 -0.539389,0 -1.078777,0.539389 -1.078777,1.258574 0,0.719184 0.539388,1.258573 1.078777,1.258573 z m 7.263781,4.746635 c 1.078777,0.719185 2.33735,-0.719185 1.618166,-1.977758 -1.106193,-1.935836 -2.407616,-4.995058 -2.876714,-5.933286 -0.512643,1.025264 -1.843309,4.124739 -2.876764,5.933286 -0.719185,1.258573 0.539388,2.696943 1.618165,1.977758 0,0.539389 0.539389,1.078777 1.258574,1.078777 0.719184,0 1.258573,-0.539388 1.258573,-1.078777 z"
           sodipodi:nodetypes="cscsccc"
           inkscape:path-effect="#path-effect26096"
           inkscape:original-d="M 9.864688,25.022242 C 8.785911,24.303057 7.527338,25.741427 8.246522,27 c 1.106193,1.935836 2.407616,4.995058 2.876714,5.933286 C 11.635879,31.908022 12.966545,28.808547 14,27 c 0.719185,-1.258573 -0.539388,-2.696943 -1.618165,-1.977758 0,-0.539389 -0.539389,-1.078777 -1.258574,-1.078777 -0.719184,0 -1.258573,0.539388 -1.258573,1.078777 z"
           class="UnoptimicedTransforms"
           transform="matrix(4.2349039,0,0,4.2349039,-92.105941,-111.39827)" /><path
           style="fill:#ff0000;stroke:none;stroke-width:2.00337;stroke-linecap:butt;stroke-linejoin:miter;stroke-dasharray:none;stroke-opacity:1"
           d="M -39.999999,8.9999999 -38,13 l 2.000001,3 1.000001,5 L -38,26.999999 l -0.999998,1 L -46,30 -51.999999,27.999999 -54,26 v -6 -7 h 1.000001 l 1,-1 7,-6.0000002 z m -94.312541,84.0248281 4,-1.999999 3,-2.000001 5,-1.000001 6,3.000002 1,0.999998 2,7.000002 -2,6.000001 -2,2 h -6 -7 v -1 l -1,-1 -6,-7.000002 z m 84.024825,94.312542 -1.999999,-4 -2.000001,-3 -1.000001,-5 3.000002,-6 0.999998,-1 7.000002,-2 5.999999,2 2.000001,2 v 6 7 h -1.000001 l -1,1 -7,6 z m 94.312544,-84.02483 -4,2 -3,2 -5,1.00001 -5.999999,-3.00001 -1,-0.99999 -2.000001,-7.000007 2.000001,-5.999999 1.999999,-2.000001 h 6 7 v 1.000001 l 1,1 6,7 z"
           id="path26086"
           inkscape:original-d="M -39.999999,8.9999999 -38,13 l 2.000001,3 1.000001,5 L -38,26.999999 l -0.999998,1 L -46,30 -51.999999,27.999999 -54,26 v -6 -7 h 1.000001 l 1,-1 7,-6.0000002 z" /><path
           style="opacity:1;fill:#00ffff;stroke:#000080;stroke-width:2.00337;stroke-linecap:butt;stroke-linejoin:miter;stroke-dasharray:none;stroke-opacity:1"
           d="m -45,-4 c -1.689732,2.8031733 -5.069195,2.8031733 -5.632439,5.6063482 C -51.195683,4.4095215 -45,15.622213 -45,15.622213 c 0,0 6.195683,-11.2126915 5.632438,-14.0158648 C -39.930806,-1.1968267 -43.310269,-1.1968267 -45,-4 Z m -22,22 c 2.803173,1.689732 2.803173,5.069195 5.606348,5.632439 C -58.590479,24.195683 -47.377787,18 -47.377787,18 c 0,0 -11.212692,-6.195683 -14.015865,-5.632438 C -64.196827,12.930806 -64.196827,16.310269 -67,18 Z m 22,22 c 1.689732,-2.803173 5.069195,-2.803173 5.632439,-5.606348 C -38.804317,31.590478 -45,20.377787 -45,20.377787 c 0,0 -6.195683,11.212691 -5.632438,14.015865 C -50.069194,37.196827 -46.689731,37.196827 -45,40 Z m 22,-22 c -2.803173,-1.689732 -2.803173,-5.069195 -5.606348,-5.632439 C -31.409521,11.804317 -42.622213,18 -42.622213,18 c 0,0 11.212692,6.195683 14.015865,5.632438 C -25.803173,23.069194 -25.803173,19.689731 -23,18 Z m -122.31254,78.024829 c 2.80317,1.689732 2.80317,5.069191 5.60635,5.632441 2.80317,0.56324 14.01586,-5.632441 14.01586,-5.632441 0,0 -11.21269,-6.195683 -14.01586,-5.632438 -2.80318,0.563244 -2.80318,3.942707 -5.60635,5.632438 z m 22,22.000001 c 1.68973,-2.80317 5.06919,-2.80317 5.63244,-5.60635 0.56324,-2.80317 -5.63244,-14.015864 -5.63244,-14.015864 0,0 -6.19569,11.212694 -5.63244,14.015864 0.56324,2.80318 3.94271,2.80318 5.63244,5.60635 z m 22,-22.000001 c -2.80318,-1.689732 -2.80318,-5.069195 -5.60635,-5.632439 -2.80318,-0.563244 -14.01587,5.632439 -14.01587,5.632439 0,0 11.21269,6.195681 14.01587,5.632441 2.80317,-0.56325 2.80317,-3.94271 5.60635,-5.632441 z m -22,-22 c -1.68973,2.803173 -5.0692,2.803173 -5.63244,5.606348 -0.56325,2.803173 5.63244,14.015865 5.63244,14.015865 0,0 6.19568,-11.212692 5.63244,-14.015865 -0.56325,-2.803175 -3.94271,-2.803175 -5.63244,-5.606348 z m 78.024826,122.312541 c 1.689732,-2.80317 5.069195,-2.80317 5.632439,-5.60635 0.563244,-2.80317 -5.632439,-14.01586 -5.632439,-14.01586 0,0 -6.195683,11.21269 -5.632438,14.01586 0.563244,2.80318 3.942707,2.80318 5.632438,5.60635 z m 22,-22 c -2.803173,-1.68973 -2.803173,-5.06919 -5.606348,-5.63244 -2.803173,-0.56324 -14.015865,5.63244 -14.015865,5.63244 0,0 11.212692,6.19568 14.015865,5.63244 2.803175,-0.56324 2.803175,-3.94271 5.606348,-5.63244 z m -22,-22 c -1.689732,2.80317 -5.069195,2.80317 -5.632439,5.60635 -0.563244,2.80317 5.632439,14.01586 5.632439,14.01586 0,0 6.195683,-11.21269 5.632438,-14.01586 -0.563244,-2.80318 -3.942707,-2.80318 -5.632438,-5.60635 z m -22,22 c 2.803173,1.68973 2.803173,5.0692 5.606348,5.63244 2.803173,0.56324 14.015865,-5.63244 14.015865,-5.63244 0,0 -11.212692,-6.19568 -14.015865,-5.63244 -2.803175,0.56325 -2.803175,3.94271 -5.606348,5.63244 z M 55.024829,96.312543 c -2.803173,-1.689732 -2.803173,-5.069195 -5.606348,-5.632439 -2.803174,-0.563244 -14.015865,5.632439 -14.015865,5.632439 0,0 11.212691,6.195687 14.015865,5.632437 2.803175,-0.56324 2.803175,-3.942706 5.606348,-5.632437 z m -22,-22 c -1.689732,2.803173 -5.069195,2.803173 -5.632439,5.606348 -0.563244,2.803173 5.632439,14.015865 5.632439,14.015865 0,0 6.195683,-11.212692 5.632438,-14.015865 -0.563244,-2.803175 -3.942707,-2.803175 -5.632438,-5.606348 z m -22,22 c 2.803173,1.689732 2.803173,5.069197 5.606348,5.632437 2.803174,0.56325 14.015865,-5.632437 14.015865,-5.632437 0,0 -11.212691,-6.195683 -14.015865,-5.632438 -2.803175,0.563244 -2.803175,3.942707 -5.606348,5.632438 z m 22,21.999997 c 1.689732,-2.80317 5.069195,-2.80317 5.632439,-5.60634 0.563244,-2.80318 -5.632439,-14.01587 -5.632439,-14.01587 0,0 -6.195683,11.21269 -5.632438,14.01587 0.563244,2.80317 3.942707,2.80317 5.632438,5.60634 z"
           id="path26088"
           sodipodi:nodetypes="cscsc"
           inkscape:path-effect="#path-effect26100"
           inkscape:original-d="m -45,-4 c -1.689732,2.8031733 -5.069195,2.8031733 -5.632439,5.6063482 C -51.195683,4.4095215 -45,15.622213 -45,15.622213 c 0,0 6.195683,-11.2126915 5.632438,-14.0158648 C -39.930806,-1.1968267 -43.310269,-1.1968267 -45,-4 Z"
           class="UnoptimicedTransforms"
           transform="translate(0,2)" /><path
           style="opacity:1;fill:#ffff00;fill-opacity:1;fill-rule:evenodd;stroke:#ff6600;stroke-width:2.00337;stroke-linecap:round;stroke-linejoin:round;stroke-dasharray:none;paint-order:markers fill stroke"
           id="circle26090"
           d="m -40,20 c 0,2.761424 -2.238576,5 -5,5 -2.761424,0 -5,-2.238576 -5,-5 0,-2.761424 2.238576,-5 5,-5 2.761424,0 5,2.238576 5,5 z m -83.31254,73.024829 c 2.76142,0 5,2.238576 5,5 0,2.761421 -2.23858,5.000001 -5,5.000001 -2.76143,0 -5,-2.23858 -5,-5.000001 0,-2.761424 2.23857,-5 5,-5 z m 73.024826,83.312541 c 0,-2.76142 2.238576,-5 5,-5 2.761424,0 5,2.23858 5,5 0,2.76143 -2.238576,5 -5,5 -2.761424,0 -5,-2.23857 -5,-5 z m 83.312543,-73.02483 c -2.761424,0 -5,-2.23857 -5,-4.999997 0,-2.761424 2.238576,-5 5,-5 2.761424,0 5,2.238576 5,5 0,2.761427 -2.238576,4.999997 -5,4.999997 z"
           sodipodi:type="arc"
           sodipodi:cx="-45"
           sodipodi:cy="20"
           sodipodi:rx="5"
           sodipodi:ry="5" /><path
           style="opacity:1;fill:#ffff00;fill-opacity:1;fill-rule:evenodd;stroke:#aa4400;stroke-width:1.82808;stroke-linecap:round;stroke-linejoin:round;stroke-dasharray:none;paint-order:markers fill stroke"
           id="path28002"
           d="m 88.325624,223.35149 c 0,4.14912 -3.363528,7.51265 -7.512651,7.51265 -4.149123,0 -7.512651,-3.36353 -7.512651,-7.51265 0,-4.14913 3.363528,-7.51266 7.512651,-7.51266 4.149123,0 7.512651,3.36353 7.512651,7.51266 z M 80.038943,-35.300795 c 4.149123,0 7.512652,3.363528 7.512652,7.512651 0,4.149123 -3.363529,7.512651 -7.512652,7.512651 -4.149123,0 -7.512651,-3.363528 -7.512651,-7.512651 0,-4.149123 3.363528,-7.512651 7.512651,-7.512651 z m -258.652283,8.286681 c 0,-4.149123 3.36353,-7.512652 7.51265,-7.512652 4.14913,0 7.51265,3.363529 7.51265,7.512652 0,4.149123 -3.36352,7.512651 -7.51265,7.512651 -4.14912,0 -7.51265,-3.363528 -7.51265,-7.512651 z m 8.28668,258.652284 c -4.14912,0 -7.51265,-3.36353 -7.51265,-7.51265 0,-4.14913 3.36353,-7.51266 7.51265,-7.51266 4.14913,0 7.51265,3.36353 7.51265,7.51266 0,4.14912 -3.36352,7.51265 -7.51265,7.51265 z"
           sodipodi:type="arc"
           sodipodi:cx="80.812973"
           sodipodi:cy="223.35149"
           sodipodi:rx="7.5126514"
           sodipodi:ry="7.5126514" /><path
           id="path28108"
           style="opacity:1;fill:#800000;fill-rule:evenodd;stroke-width:1.82808;stroke-linecap:round;stroke-linejoin:round;paint-order:markers fill stroke"
           d="m 91.730255,185.85281 c 2e-6,11.70975 -10.699788,21.15794 -10.932472,21.20238 -0.06785,0.013 -10.932474,-9.49263 -10.932472,-21.20238 10e-7,-11.70975 10.603355,-21.19655 10.932472,-21.20237 0.567463,-0.01 10.932471,9.49262 10.932472,21.20237 z M 42.540267,-38.705426 c 11.70975,-2e-6 21.15794,10.699788 21.20238,10.932472 0.013,0.06785 -9.49263,10.932474 -21.20238,10.932472 -11.70975,-10e-7 -21.19655,-10.603355 -21.20237,-10.932472 -0.01,-0.567463 9.49262,-10.932471 21.20237,-10.932472 z M -182.01797,10.484562 c 0,-11.70975 10.69979,-21.15794 10.93247,-21.20238 0.0678,-0.013 10.93248,9.49263 10.93248,21.20238 -1e-5,11.70975 -10.60336,21.19655 -10.93248,21.20237 -0.56746,0.01 -10.93247,-9.49262 -10.93247,-21.20237 z m 49.18999,224.558238 c -11.70975,0 -21.15794,-10.69979 -21.20238,-10.93247 -0.013,-0.0678 9.49263,-10.93248 21.20238,-10.93248 11.70975,0 21.19655,10.60336 21.20237,10.93248 0.01,0.56746 -9.49262,10.93247 -21.20237,10.93247 z"
           sodipodi:nodetypes="sssss"
           inkscape:original-d="m 91.730255,185.85281 c 2e-6,11.70975 -10.699788,21.15794 -10.932472,21.20238 -0.06785,0.013 -10.932474,-9.49263 -10.932472,-21.20238 10e-7,-11.70975 10.603355,-21.19655 10.932472,-21.20237 0.567463,-0.01 10.932471,9.49262 10.932472,21.20237 z" /><path
           id="path28110"
           style="opacity:1;fill:#800000;fill-rule:evenodd;stroke-width:1.82808;stroke-linecap:round;stroke-linejoin:round;paint-order:markers fill stroke"
           d="m 59.264124,227.59497 c 0.215578,0.80455 -9.640948,11.26376 -21.533659,11.26376 -11.892711,0 -21.533659,-11.26376 -21.533659,-11.26376 -0.234255,-1.30144 9.640948,-11.26376 21.533659,-11.26376 11.892711,0 21.345932,10.56315 21.533659,11.26376 z M 84.282427,-6.239295 c 0.80455,-0.215578 11.26376,9.640948 11.26376,21.533659 0,11.892711 -11.26376,21.533659 -11.26376,21.533659 -1.30144,0.234255 -11.26376,-9.640948 -11.26376,-21.533659 0,-11.892711 10.56315,-21.345932 11.26376,-21.533659 z M -149.55184,-31.257598 c -0.21558,-0.80455 9.64095,-11.26376 21.53366,-11.26376 11.89271,0 21.53366,11.26376 21.53366,11.26376 0.23425,1.30144 -9.64095,11.26376 -21.53366,11.26376 -11.89271,0 -21.34593,-10.56315 -21.53366,-11.26376 z m -25.0183,233.834268 c -0.80455,0.21557 -11.26376,-9.64095 -11.26376,-21.53366 0,-11.89271 11.26376,-21.53366 11.26376,-21.53366 1.30144,-0.23426 11.26376,9.64095 11.26376,21.53366 0,11.89271 -10.56315,21.34593 -11.26376,21.53366 z"
           sodipodi:nodetypes="sssss"
           inkscape:original-d="m 59.264124,227.59497 c 0.215578,0.80455 -9.640948,11.26376 -21.533659,11.26376 -11.892711,0 -21.533659,-11.26376 -21.533659,-11.26376 -0.234255,-1.30144 9.640948,-11.26376 21.533659,-11.26376 11.892711,0 21.345932,10.56315 21.533659,11.26376 z" /></g></g></g></svg>
