<?xml version="1.0" encoding="iso-8859-1"?>
<!-- Uploaded to: SVG Repo, www.svgrepo.com, Generator: SVG Repo Mixer Tools -->
<!DOCTYPE svg PUBLIC "-//W3C//DTD SVG 1.1//EN" "http://www.w3.org/Graphics/SVG/1.1/DTD/svg11.dtd">
<svg fill="#000000" version="1.1" id="Capa_1" xmlns="http://www.w3.org/2000/svg" xmlns:xlink="http://www.w3.org/1999/xlink" 
	 width="800px" height="800px" viewBox="0 0 330.863 330.864"
	 xml:space="preserve">
<g>
	<g id="Artwork_84_">
		<g id="Layer_5_84_">
			<g>
				<path d="M200.449,77.947c-19.623-0.001-32.072,21.875-35.018,21.875c-2.575,0-14.515-21.875-35.019-21.876
					c-19.941,0.001-36.226,16.447-37.293,36.363c-0.6,11.25,3.027,19.811,8.137,27.567c10.211,15.493,54.854,52.791,64.24,52.791
					c9.592,0,53.83-37.162,64.107-52.791c5.123-7.791,8.738-16.316,8.137-27.567C236.676,94.393,220.393,77.946,200.449,77.947"/>
				<path d="M311.205,16.756H19.658C8.818,16.756,0,25.575,0,36.415v216.503c0,10.839,8.818,19.658,19.658,19.658
					c0,0,83.384,0,114.513,0c2.409,0,2.727,0.062,2.727,2.614c0,5.271,0,21.079,0,21.079c0,1.346-1.101,2.446-2.446,2.446H87.161
					c-1.346,0-2.446,1.101-2.446,2.446v10.499c0,1.345,1.101,2.445,2.446,2.445h156.542c1.346,0,2.445-1.101,2.445-2.445v-10.499
					c0-1.346-1.1-2.446-2.445-2.446h-47.289c-1.346,0-2.445-1.101-2.445-2.446c0,0,0-15.857,0-21.143
					c0-2.211,0.18-2.551,2.769-2.551c31.116,0,114.47,0,114.47,0c10.84,0,19.656-8.819,19.656-19.658V36.415
					C330.861,25.575,322.045,16.756,311.205,16.756z M156.574,246.747c0-4.893,3.966-8.857,8.856-8.857
					c4.893,0,8.859,3.965,8.859,8.857c0,4.892-3.967,8.856-8.859,8.856C160.54,255.603,156.574,251.638,156.574,246.747z
					 M311.512,214.823c0,4.271-3.496,7.766-7.766,7.766H27.118c-4.272,0-7.766-3.494-7.766-7.766V46.585
					c0-4.271,3.494-7.766,7.766-7.766h276.628c4.27,0,7.766,3.495,7.766,7.766V214.823L311.512,214.823z"/>
			</g>
		</g>
	</g>
</g>
</svg>