<?xml version="1.0" encoding="UTF-8" standalone="no"?>
<!-- Created with Inkscape (http://www.inkscape.org/) -->

<svg
   width="59.999985mm"
   height="59.999989mm"
   viewBox="0 0 59.999985 59.999989"
   version="1.1"
   id="svg5"
   inkscape:version="1.3 (0e150ed6c4, 2023-07-21)"
   sodipodi:docname="Pattern_Spanish Tile.svg"
   xml:space="preserve"
   xmlns:inkscape="http://www.inkscape.org/namespaces/inkscape"
   xmlns:sodipodi="http://sodipodi.sourceforge.net/DTD/sodipodi-0.dtd"
   xmlns="http://www.w3.org/2000/svg"
   xmlns:svg="http://www.w3.org/2000/svg"><sodipodi:namedview
     id="namedview7"
     pagecolor="#ffffff"
     bordercolor="#666666"
     borderopacity="1.0"
     inkscape:showpageshadow="2"
     inkscape:pageopacity="0.0"
     inkscape:pagecheckerboard="0"
     inkscape:deskcolor="#d1d1d1"
     inkscape:document-units="mm"
     showgrid="true"
     inkscape:zoom="2"
     inkscape:cx="2310"
     inkscape:cy="-270.25"
     inkscape:window-width="3486"
     inkscape:window-height="2080"
     inkscape:window-x="77"
     inkscape:window-y="959"
     inkscape:window-maximized="0"
     inkscape:current-layer="layer3"
     showguides="true"><inkscape:grid
       type="xygrid"
       id="grid9727"
       empcolor="#000000"
       empopacity="0.17254902"
       color="#ffffff"
       opacity="0.15294118"
       units="mm"
       spacingx="1"
       spacingy="1"
       originx="-711.00449"
       originy="1124.6518"
       visible="true" /><sodipodi:guide
       position="-225.59125,66.9933"
       orientation="0.70710678,-0.70710678"
       id="guide5440"
       inkscape:locked="false" /><sodipodi:guide
       position="-158.11994,54.4359"
       orientation="-0.70710678,-0.70710678"
       id="guide12665"
       inkscape:locked="false" /></sodipodi:namedview><defs
     id="defs2"><inkscape:path-effect
       effect="copy_rotate"
       starting_point="-57.5,-60"
       origin="-60,-60"
       id="path-effect4968"
       is_visible="true"
       lpeversion="1.2"
       lpesatellites=""
       method="normal"
       num_copies="12"
       starting_angle="0"
       rotation_angle="30"
       gap="-0.01"
       copies_to_360="true"
       mirror_copies="false"
       split_items="false"
       link_styles="false" /><inkscape:path-effect
       effect="copy_rotate"
       starting_point="-57.5,-60"
       origin="-60,-60"
       id="path-effect4962"
       is_visible="true"
       lpeversion="1.2"
       lpesatellites=""
       method="normal"
       num_copies="12"
       starting_angle="0"
       rotation_angle="30"
       gap="-0.01"
       copies_to_360="true"
       mirror_copies="false"
       split_items="false"
       link_styles="false" /><inkscape:path-effect
       effect="copy_rotate"
       starting_point="-57.5,-60"
       origin="-60,-60"
       id="path-effect4956"
       is_visible="true"
       lpeversion="1.2"
       lpesatellites=""
       method="normal"
       num_copies="12"
       starting_angle="0"
       rotation_angle="30"
       gap="-0.01"
       copies_to_360="true"
       mirror_copies="false"
       split_items="false"
       link_styles="false" /><inkscape:path-effect
       effect="copy_rotate"
       starting_point="-57.5,-60"
       origin="-60,-60"
       id="path-effect4889"
       is_visible="true"
       lpeversion="1.2"
       lpesatellites=""
       method="normal"
       num_copies="12"
       starting_angle="0"
       rotation_angle="30"
       gap="-0.01"
       copies_to_360="true"
       mirror_copies="false"
       split_items="false"
       link_styles="false" /><inkscape:path-effect
       effect="copy_rotate"
       starting_point="-57.5,-60"
       origin="-60,-60"
       id="path-effect4883"
       is_visible="true"
       lpeversion="1.2"
       lpesatellites=""
       method="normal"
       num_copies="12"
       starting_angle="0"
       rotation_angle="30"
       gap="-0.01"
       copies_to_360="true"
       mirror_copies="false"
       split_items="false"
       link_styles="false" /></defs><g
     inkscape:groupmode="layer"
     id="layer1"
     inkscape:label="Components"
     style="display:inline"
     transform="translate(-188.11994,297.56411)"><g
       id="g7411"
       transform="translate(198.11994,-202.56412)"
       inkscape:export-filename="g7411.png"
       inkscape:export-xdpi="96"
       inkscape:export-ydpi="96"><rect
         style="fill:#a91f16;fill-opacity:1;stroke-width:0.1;stroke-linecap:round;stroke-linejoin:round"
         id="rect7873"
         width="60"
         height="60"
         x="-10"
         y="-95" /><path
         id="path3939"
         style="fill:#ffffff;stroke:none;stroke-width:0.264584px;stroke-linecap:butt;stroke-linejoin:miter;stroke-opacity:1"
         d="m 14.980716,-90.453318 c -0.565519,0.008 -1.148105,0.0948 -1.729611,0.262 -1.171975,0.290622 -2.185933,0.863239 -2.93212,1.62264 -1.0314898,0.896851 -1.7943908,2.023048 -2.0634398,3.227193 -0.949016,-0.199409 -2.015504,-0.161737 -3.012736,0.03566 -1.308824,0.116421 -2.631546,0.770084 -3.689697,1.87017 -0.86463599,0.83503 -1.45333299,1.833904 -1.71979199,2.86029 -0.446307,1.293939 -0.544703,2.652505 -0.175183,3.831291 -0.92193001,0.301931 -1.82707401,0.868042 -2.59209001,1.537891 -1.071489,0.753088 -1.887903,1.975587 -2.255676,3.450952 -0.335003,1.160131 -0.346329,2.324525 -0.06253,3.3507 0.26054,1.343429 0.85397,2.569024 1.7632,3.40496 -0.646406,0.721279 -1.146178,1.662098 -1.473812,2.623096 -0.553909,1.190163 -0.649837,2.661252 -0.22841,4.126363 0.29046,1.170502 0.862364,2.18323 1.620573,2.92902 0.897219,1.032493 2.024408,1.796301 3.22926101,2.065507 -0.19925,0.948259 -0.161797,2.013655 0.03514,3.010152 0.11564,1.307548 0.767968,2.628672 1.86551999,3.686597 0.837102,0.86867 1.838692,1.459907 2.868558,1.726509 1.292987,0.445287 2.650432,0.543351 3.828191,0.17415 0.301388,0.920274 0.866013,1.82373 1.534273,2.587956 0.7529128,1.073724 1.9770008,1.891644 3.4545688,2.25981 1.160663,0.335159 2.325726,0.346694 3.35225,0.06253 1.342566,-0.260723 2.567371,-0.854937 3.402894,-1.763716 0.721781,0.646854 1.663375,1.147163 2.625162,1.474845 1.18959,0.553076 2.659122,0.648868 4.123263,0.227893 1.171203,-0.290415 2.184511,-0.862449 2.93057,-1.621089 1.032258,-0.897057 1.79581,-2.023498 2.064991,-3.228227 0.948207,0.199238 2.013652,0.161294 3.010152,-0.03566 1.307608,-0.115697 2.629133,-0.767875 3.687113,-1.865519 0.868053,-0.836511 1.458647,-1.837407 1.725476,-2.866492 0.445989,-1.293614 0.544601,-2.6518 0.175183,-3.830257 0.920272,-0.301388 1.823291,-0.866005 2.587439,-1.534273 1.075525,-0.754205 1.894525,-1.980985 2.261878,-3.461804 0.333334,-1.158859 0.344428,-2.321803 0.06046,-3.346566 -0.260847,-1.342241 -0.854654,-2.566554 -1.7632,-3.40186 0.647655,-0.722674 1.148803,-1.665331 1.476396,-2.628263 0.552529,-1.190908 0.64712,-2.661886 0.224276,-4.12688 -0.291253,-1.169432 -0.863367,-2.181108 -1.621607,-2.92592 -0.896829,-1.031092 -2.022379,-1.793956 -3.226159,-2.062923 0.199352,-0.948752 0.161552,-2.014759 -0.03566,-3.011702 -0.115889,-1.304534 -0.765933,-2.622921 -1.859318,-3.679362 -0.828484,-0.861741 -1.819578,-1.448295 -2.839103,-1.719792 -1.303654,-0.455853 -2.675257,-0.559146 -3.863847,-0.186552 -0.301423,-0.92038 -0.865913,-1.823673 -1.534273,-2.587955 -0.752219,-1.072685 -1.974748,-1.890128 -3.450436,-2.258777 -1.148301,-0.332316 -2.299892,-0.345135 -3.31866,-0.0708 -1.357359,0.256839 -2.596754,0.853659 -3.4401,1.770951 -0.721782,-0.646855 -1.663894,-1.147162 -2.62568,-1.474845 -0.717146,-0.333422 -1.535259,-0.50203 -2.393652,-0.489893 z" /><path
         id="path4667"
         style="fill:#f9bf24;fill-opacity:1;stroke:none;stroke-width:0.264584px;stroke-linecap:butt;stroke-linejoin:miter;stroke-opacity:1"
         d="m 15.506043,-87.78933 c -0.506331,0.0069 -1.027942,0.08487 -1.548587,0.23458 -1.049313,0.260204 -1.957149,0.772891 -2.62524,1.452812 -0.92353,0.802984 -1.6065857,1.811311 -1.8474758,2.889428 -0.8496903,-0.178538 -1.8045577,-0.14481 -2.6974176,0.03192 -1.1718403,0.104237 -2.3561239,0.689487 -3.3035269,1.674436 -0.7741417,0.747634 -1.3012248,1.641965 -1.5397956,2.560928 -0.3995956,1.158512 -0.4876934,2.374888 -0.1568479,3.4303 -0.82543936,0.270331 -1.63584936,0.777192 -2.32079759,1.376932 -0.95934491,0.67427 -1.69031161,1.768819 -2.01959271,3.08977 -0.2999413,1.03871 -0.3100818,2.081236 -0.055984,3.000011 0.2332714,1.202824 0.7645921,2.300147 1.5786605,3.048591 -0.578752,0.645788 -1.026217,1.48814 -1.3195604,2.348559 -0.4959357,1.065596 -0.5818238,2.382719 -0.2045039,3.694489 0.2600597,1.047995 0.7721073,1.954729 1.4509608,2.622465 0.80331462,0.92443 1.81252994,1.608295 2.8912809,1.849327 -0.178396,0.849012 -0.1448631,1.802903 0.031462,2.695104 0.103537,1.170697 0.6875912,2.35355 1.6702715,3.30075 0.7494893,0.777754 1.6462514,1.30711 2.5683297,1.545809 1.1576608,0.398684 2.3730332,0.486484 3.427526,0.155924 0.269844,0.823956 0.775374,1.632857 1.373692,2.317097 0.674113,0.961346 1.770085,1.693661 3.093008,2.023295 1.039186,0.300081 2.082312,0.310407 3.001398,0.05598 1.20205,-0.233436 2.298664,-0.765459 3.046745,-1.579123 0.646232,0.579153 1.489278,1.027099 2.350402,1.320486 1.065086,0.49519 2.380815,0.580957 3.691716,0.204043 1.048622,-0.260019 1.955877,-0.772184 2.623851,-1.451423 0.924222,-0.803172 1.607857,-1.811718 1.848867,-2.890357 0.848966,0.178385 1.802899,0.144414 2.695103,-0.03192 1.170752,-0.103587 2.353963,-0.687508 3.301214,-1.670269 0.7772,-0.748961 1.305982,-1.6451 1.544883,-2.566482 0.399314,-1.15822 0.487603,-2.374256 0.15685,-3.429374 0.823954,-0.269844 1.632462,-0.775367 2.316632,-1.373693 0.962959,-0.675269 1.696242,-1.773651 2.025145,-3.099484 0.298448,-1.037573 0.308382,-2.0788 0.05413,-2.99631 -0.233546,-1.201758 -0.765206,-2.297935 -1.578661,-3.045815 0.579872,-0.647039 1.028566,-1.491035 1.321874,-2.353184 0.4947,-1.066266 0.579391,-2.383289 0.200802,-3.694955 -0.260771,-1.047036 -0.773005,-1.952829 -1.451885,-2.619687 -0.802966,-0.923178 -1.810714,-1.606198 -2.888504,-1.847014 0.178487,-0.849456 0.144644,-1.80389 -0.03192,-2.696494 -0.103758,-1.168 -0.685768,-2.3484 -1.664719,-3.294272 -0.741772,-0.771551 -1.629137,-1.296715 -2.541956,-1.539797 -1.167213,-0.408142 -2.39526,-0.500623 -3.45945,-0.167026 -0.269876,-0.824051 -0.775284,-1.632804 -1.373694,-2.317094 -0.67349,-0.960418 -1.768066,-1.692304 -3.089309,-2.022372 -1.028116,-0.297534 -2.059179,-0.309012 -2.97132,-0.06339 -1.215296,0.229958 -2.324975,0.764314 -3.080051,1.5856 -0.646242,-0.579154 -1.489752,-1.027098 -2.350874,-1.320483 -0.642089,-0.298527 -1.374578,-0.449488 -2.143129,-0.438621 z" /><ellipse
         style="fill:#035a9d;fill-opacity:1;stroke-width:0.1;stroke-linecap:round;stroke-linejoin:round"
         id="path5781"
         cx="20"
         cy="-65"
         rx="16.69091"
         ry="17" /><g
         id="g4944"
         style="fill:#f9bf24;fill-opacity:1"><path
           id="path4794"
           style="fill:#f9bf24;fill-opacity:1;stroke-width:0.0999999;stroke-linecap:round;stroke-linejoin:round"
           d="M -5.000001,-93.333449 A 1.6666535,1.6666535 0 0 0 -6.666725,-95 H -10 v 3.333276 a 1.6666535,1.6666535 0 0 0 1.666551,1.666723 1.6666535,1.6666535 0 0 0 1.666724,-1.666723 1.6666535,1.6666535 0 0 0 1.666724,-1.666725 z" /><path
           id="path4796"
           style="fill:#f9bf24;fill-opacity:1;stroke-width:0.0999999;stroke-linecap:round;stroke-linejoin:round"
           d="M -5.000001,-36.666551 A 1.6666535,1.6666535 0 0 1 -6.666725,-35 H -10 v -3.333276 a 1.6666535,1.6666535 0 0 1 1.666551,-1.666723 1.6666535,1.6666535 0 0 1 1.666724,1.666723 1.6666535,1.6666535 0 0 1 1.666724,1.666725 z" /><path
           id="path4798"
           style="fill:#f9bf24;fill-opacity:1;stroke-width:0.0999999;stroke-linecap:round;stroke-linejoin:round"
           d="M 45.000001,-36.666551 A 1.6666535,1.6666535 0 0 0 46.666725,-35 H 50 v -3.333276 a 1.6666535,1.6666535 0 0 0 -1.666551,-1.666723 1.6666535,1.6666535 0 0 0 -1.666724,1.666723 1.6666535,1.6666535 0 0 0 -1.666724,1.666725 z" /><path
           id="path4800"
           style="fill:#f9bf24;fill-opacity:1;stroke-width:0.0999999;stroke-linecap:round;stroke-linejoin:round"
           d="M 45.000001,-93.333449 A 1.6666535,1.6666535 0 0 1 46.666725,-95 H 50 v 3.333276 a 1.6666535,1.6666535 0 0 1 -1.666551,1.666723 1.6666535,1.6666535 0 0 1 -1.666724,-1.666723 1.6666535,1.6666535 0 0 1 -1.666724,-1.666725 z" /></g><path
         id="path4881"
         style="fill:#e23b2e;fill-opacity:1;stroke-width:0.0650488;stroke-linecap:round;stroke-linejoin:round"
         d="m -65.000001,-68.333449 c -5.7e-5,-0.920455 -0.746269,-1.66659 -1.666724,-1.666551 H -70 v 3.333276 c -3.8e-5,0.920454 0.746097,1.666666 1.666551,1.666723 0.920522,3.9e-5 1.666762,-0.746201 1.666724,-1.666723 0.920523,3.9e-5 1.666763,-0.746202 1.666724,-1.666725 z m -3.496851,3.616471 c -0.460277,-0.797109 -1.479583,-1.070175 -2.276701,-0.609914 l -2.886701,1.666638 1.666638,2.886702 c 0.460194,0.797156 1.479472,1.070327 2.276637,0.610149 0.797215,-0.460228 1.070358,-1.479611 0.610064,-2.276787 0.797215,-0.460228 1.070358,-1.479612 0.610063,-2.276788 z m -1.220127,4.880381 c -0.797166,-0.460178 -1.816444,-0.187007 -2.276638,0.61015 l -1.666637,2.886701 2.886702,1.666638 c 0.797117,0.46026 1.816423,0.187195 2.2767,-0.609914 0.460294,-0.797176 0.187152,-1.816559 -0.610063,-2.276787 0.460295,-0.797176 0.187152,-1.81656 -0.610064,-2.276788 z m 1.38353,4.836598 c -0.920455,5.7e-5 -1.66659,0.746269 -1.666551,1.666724 V -50 h 3.333276 c 0.920454,3.8e-5 1.666666,-0.746097 1.666723,-1.666551 3.9e-5,-0.920522 -0.746201,-1.666762 -1.666723,-1.666724 3.9e-5,-0.920523 -0.746202,-1.666763 -1.666725,-1.666724 z m 3.616471,3.496851 c -0.797109,0.460277 -1.070175,1.479583 -0.609914,2.276701 l 1.666638,2.886701 2.886702,-1.666638 c 0.797156,-0.460194 1.070327,-1.479472 0.610149,-2.276637 -0.460228,-0.797215 -1.479611,-1.070358 -2.276787,-0.610064 -0.460228,-0.797215 -1.479612,-1.070358 -2.276788,-0.610063 z m 4.880381,1.220127 c -0.460178,0.797166 -0.187007,1.816444 0.61015,2.276638 l 2.886701,1.666637 1.666638,-2.886702 c 0.46026,-0.797117 0.187195,-1.816423 -0.609914,-2.2767 -0.797176,-0.460294 -1.816559,-0.187152 -2.276787,0.610063 -0.797176,-0.460295 -1.81656,-0.187152 -2.276788,0.610064 z m 4.836598,-1.38353 c 5.7e-5,0.920455 0.746269,1.66659 1.666724,1.666551 H -50 v -3.333276 c 3.8e-5,-0.920454 -0.746097,-1.666666 -1.666551,-1.666723 -0.920522,-3.9e-5 -1.666762,0.746201 -1.666724,1.666723 -0.920523,-3.9e-5 -1.666763,0.746202 -1.666724,1.666725 z m 3.496851,-3.616471 c 0.460277,0.797109 1.479583,1.070175 2.276701,0.609914 l 2.886701,-1.666638 -1.666638,-2.886702 c -0.460194,-0.797156 -1.479472,-1.070327 -2.276637,-0.610149 -0.797215,0.460228 -1.070358,1.479611 -0.610064,2.276787 -0.797215,0.460228 -1.070358,1.479612 -0.610063,2.276788 z m 1.220127,-4.880381 c 0.797166,0.460178 1.816444,0.187007 2.276638,-0.61015 l 1.666637,-2.886701 -2.886702,-1.666638 c -0.797117,-0.46026 -1.816423,-0.187195 -2.2767,0.609914 -0.460294,0.797176 -0.187152,1.816559 0.610063,2.276787 -0.460295,0.797176 -0.187152,1.81656 0.610064,2.276788 z m -1.38353,-4.836598 c 0.920455,-5.7e-5 1.66659,-0.746269 1.666551,-1.666724 V -70 h -3.333276 c -0.920454,-3.8e-5 -1.666666,0.746097 -1.666723,1.666551 -3.9e-5,0.920522 0.746201,1.666762 1.666723,1.666724 -3.9e-5,0.920523 0.746202,1.666763 1.666725,1.666724 z m -3.616471,-3.496851 c 0.797109,-0.460277 1.070175,-1.479583 0.609914,-2.276701 l -1.666638,-2.886701 -2.886702,1.666638 c -0.797156,0.460194 -1.070327,1.479472 -0.610149,2.276637 0.460228,0.797215 1.479611,1.070358 2.276787,0.610064 0.460228,0.797215 1.479612,1.070358 2.276788,0.610063 z m -4.880381,-1.220127 c 0.460178,-0.797166 0.187007,-1.816444 -0.61015,-2.276638 l -2.886701,-1.666637 -1.666638,2.886702 c -0.46026,0.797117 -0.187195,1.816423 0.609914,2.2767 0.797176,0.460294 1.816559,0.187152 2.276787,-0.610063 0.797176,0.460295 1.81656,0.187152 2.276788,-0.610064 z"
         inkscape:path-effect="#path-effect4883"
         inkscape:original-d="M -65.000001,-68.333449 A 1.6666535,1.6666535 0 0 0 -66.666725,-70 H -70 v 3.333276 a 1.6666535,1.6666535 0 0 0 1.666551,1.666723 1.6666535,1.6666535 0 0 0 1.666724,-1.666723 1.6666535,1.6666535 0 0 0 1.666724,-1.666725 z"
         class="UnoptimicedTransforms"
         transform="matrix(1.5373067,0,0,1.5373067,112.2384,27.238402)" /><ellipse
         style="fill:#f9bf24;fill-opacity:1;stroke-width:0.0999999;stroke-linecap:round;stroke-linejoin:round"
         id="ellipse6249"
         cx="20"
         cy="-65"
         rx="10.800002"
         ry="11" /><path
         id="path4885"
         style="fill:#e02d1f;fill-opacity:1;stroke-width:0.0991111;stroke-linecap:round;stroke-linejoin:round"
         d="m -65.000001,-68.333449 c -5.7e-5,-0.920455 -0.746269,-1.66659 -1.666724,-1.666551 H -70 v 3.333276 c -3.8e-5,0.920454 0.746097,1.666666 1.666551,1.666723 0.920522,3.9e-5 1.666762,-0.746201 1.666724,-1.666723 0.920523,3.9e-5 1.666763,-0.746202 1.666724,-1.666725 z m -3.496851,3.616471 c -0.460277,-0.797109 -1.479583,-1.070175 -2.276701,-0.609914 l -2.886701,1.666638 1.666638,2.886702 c 0.460194,0.797156 1.479472,1.070327 2.276637,0.610149 0.797215,-0.460228 1.070358,-1.479611 0.610064,-2.276787 0.797215,-0.460228 1.070358,-1.479612 0.610063,-2.276788 z m -1.220127,4.880381 c -0.797166,-0.460178 -1.816444,-0.187007 -2.276638,0.61015 l -1.666637,2.886701 2.886702,1.666638 c 0.797117,0.46026 1.816423,0.187195 2.2767,-0.609914 0.460294,-0.797176 0.187152,-1.816559 -0.610063,-2.276787 0.460295,-0.797176 0.187152,-1.81656 -0.610064,-2.276788 z m 1.38353,4.836598 c -0.920455,5.7e-5 -1.66659,0.746269 -1.666551,1.666724 V -50 h 3.333276 c 0.920454,3.8e-5 1.666666,-0.746097 1.666723,-1.666551 3.9e-5,-0.920522 -0.746201,-1.666762 -1.666723,-1.666724 3.9e-5,-0.920523 -0.746202,-1.666763 -1.666725,-1.666724 z m 3.616471,3.496851 c -0.797109,0.460277 -1.070175,1.479583 -0.609914,2.276701 l 1.666638,2.886701 2.886702,-1.666638 c 0.797156,-0.460194 1.070327,-1.479472 0.610149,-2.276637 -0.460228,-0.797215 -1.479611,-1.070358 -2.276787,-0.610064 -0.460228,-0.797215 -1.479612,-1.070358 -2.276788,-0.610063 z m 4.880381,1.220127 c -0.460178,0.797166 -0.187007,1.816444 0.61015,2.276638 l 2.886701,1.666637 1.666638,-2.886702 c 0.46026,-0.797117 0.187195,-1.816423 -0.609914,-2.2767 -0.797176,-0.460294 -1.816559,-0.187152 -2.276787,0.610063 -0.797176,-0.460295 -1.81656,-0.187152 -2.276788,0.610064 z m 4.836598,-1.38353 c 5.7e-5,0.920455 0.746269,1.66659 1.666724,1.666551 H -50 v -3.333276 c 3.8e-5,-0.920454 -0.746097,-1.666666 -1.666551,-1.666723 -0.920522,-3.9e-5 -1.666762,0.746201 -1.666724,1.666723 -0.920523,-3.9e-5 -1.666763,0.746202 -1.666724,1.666725 z m 3.496851,-3.616471 c 0.460277,0.797109 1.479583,1.070175 2.276701,0.609914 l 2.886701,-1.666638 -1.666638,-2.886702 c -0.460194,-0.797156 -1.479472,-1.070327 -2.276637,-0.610149 -0.797215,0.460228 -1.070358,1.479611 -0.610064,2.276787 -0.797215,0.460228 -1.070358,1.479612 -0.610063,2.276788 z m 1.220127,-4.880381 c 0.797166,0.460178 1.816444,0.187007 2.276638,-0.61015 l 1.666637,-2.886701 -2.886702,-1.666638 c -0.797117,-0.46026 -1.816423,-0.187195 -2.2767,0.609914 -0.460294,0.797176 -0.187152,1.816559 0.610063,2.276787 -0.460295,0.797176 -0.187152,1.81656 0.610064,2.276788 z m -1.38353,-4.836598 c 0.920455,-5.7e-5 1.66659,-0.746269 1.666551,-1.666724 V -70 h -3.333276 c -0.920454,-3.8e-5 -1.666666,0.746097 -1.666723,1.666551 -3.9e-5,0.920522 0.746201,1.666762 1.666723,1.666724 -3.9e-5,0.920523 0.746202,1.666763 1.666725,1.666724 z m -3.616471,-3.496851 c 0.797109,-0.460277 1.070175,-1.479583 0.609914,-2.276701 l -1.666638,-2.886701 -2.886702,1.666638 c -0.797156,0.460194 -1.070327,1.479472 -0.610149,2.276637 0.460228,0.797215 1.479611,1.070358 2.276787,0.610064 0.460228,0.797215 1.479612,1.070358 2.276788,0.610063 z m -4.880381,-1.220127 c 0.460178,-0.797166 0.187007,-1.816444 -0.61015,-2.276638 l -2.886701,-1.666637 -1.666638,2.886702 c -0.46026,0.797117 -0.187195,1.816423 0.609914,2.2767 0.797176,0.460294 1.816559,0.187152 2.276787,-0.610063 0.797176,0.460295 1.81656,0.187152 2.276788,-0.610064 z"
         inkscape:path-effect="#path-effect4889"
         inkscape:original-d="M -65.000001,-68.333449 A 1.6666535,1.6666535 0 0 0 -66.666725,-70 H -70 v 3.333276 a 1.6666535,1.6666535 0 0 0 1.666551,1.666723 1.6666535,1.6666535 0 0 0 1.666724,-1.666723 1.6666535,1.6666535 0 0 0 1.666724,-1.666725 z"
         class="UnoptimicedTransforms"
         transform="matrix(0.97459001,-0.26114061,0.26114061,0.97459001,94.143837,-22.193036)" /><ellipse
         style="fill:#035a9d;fill-opacity:1;stroke-width:0.1;stroke-linecap:round;stroke-linejoin:round"
         id="ellipse7018"
         cx="20"
         cy="-65"
         rx="6.872735"
         ry="7.0000076" /><ellipse
         style="fill:#f9bf24;fill-opacity:1;stroke-width:0.1;stroke-linecap:round;stroke-linejoin:round"
         id="ellipse7020"
         cx="20"
         cy="-65"
         rx="4.5316095"
         ry="4.6155272" /><path
         id="path4952"
         style="fill:#bc261a;fill-opacity:1;stroke-width:0.149546;stroke-linecap:round;stroke-linejoin:round"
         d="m -65.000001,-68.333449 c -5.7e-5,-0.920455 -0.746269,-1.66659 -1.666724,-1.666551 H -70 v 3.333276 c -3.8e-5,0.920454 0.746097,1.666666 1.666551,1.666723 0.920522,3.9e-5 1.666762,-0.746201 1.666724,-1.666723 0.920523,3.9e-5 1.666763,-0.746202 1.666724,-1.666725 z m -3.496851,3.616471 c -0.460277,-0.797109 -1.479583,-1.070175 -2.276701,-0.609914 l -2.886701,1.666638 1.666638,2.886702 c 0.460194,0.797156 1.479472,1.070327 2.276637,0.610149 0.797215,-0.460228 1.070358,-1.479611 0.610064,-2.276787 0.797215,-0.460228 1.070358,-1.479612 0.610063,-2.276788 z m -1.220127,4.880381 c -0.797166,-0.460178 -1.816444,-0.187007 -2.276638,0.61015 l -1.666637,2.886701 2.886702,1.666638 c 0.797117,0.46026 1.816423,0.187195 2.2767,-0.609914 0.460294,-0.797176 0.187152,-1.816559 -0.610063,-2.276787 0.460295,-0.797176 0.187152,-1.81656 -0.610064,-2.276788 z m 1.38353,4.836598 c -0.920455,5.7e-5 -1.66659,0.746269 -1.666551,1.666724 V -50 h 3.333276 c 0.920454,3.8e-5 1.666666,-0.746097 1.666723,-1.666551 3.9e-5,-0.920522 -0.746201,-1.666762 -1.666723,-1.666724 3.9e-5,-0.920523 -0.746202,-1.666763 -1.666725,-1.666724 z m 3.616471,3.496851 c -0.797109,0.460277 -1.070175,1.479583 -0.609914,2.276701 l 1.666638,2.886701 2.886702,-1.666638 c 0.797156,-0.460194 1.070327,-1.479472 0.610149,-2.276637 -0.460228,-0.797215 -1.479611,-1.070358 -2.276787,-0.610064 -0.460228,-0.797215 -1.479612,-1.070358 -2.276788,-0.610063 z m 4.880381,1.220127 c -0.460178,0.797166 -0.187007,1.816444 0.61015,2.276638 l 2.886701,1.666637 1.666638,-2.886702 c 0.46026,-0.797117 0.187195,-1.816423 -0.609914,-2.2767 -0.797176,-0.460294 -1.816559,-0.187152 -2.276787,0.610063 -0.797176,-0.460295 -1.81656,-0.187152 -2.276788,0.610064 z m 4.836598,-1.38353 c 5.7e-5,0.920455 0.746269,1.66659 1.666724,1.666551 H -50 v -3.333276 c 3.8e-5,-0.920454 -0.746097,-1.666666 -1.666551,-1.666723 -0.920522,-3.9e-5 -1.666762,0.746201 -1.666724,1.666723 -0.920523,-3.9e-5 -1.666763,0.746202 -1.666724,1.666725 z m 3.496851,-3.616471 c 0.460277,0.797109 1.479583,1.070175 2.276701,0.609914 l 2.886701,-1.666638 -1.666638,-2.886702 c -0.460194,-0.797156 -1.479472,-1.070327 -2.276637,-0.610149 -0.797215,0.460228 -1.070358,1.479611 -0.610064,2.276787 -0.797215,0.460228 -1.070358,1.479612 -0.610063,2.276788 z m 1.220127,-4.880381 c 0.797166,0.460178 1.816444,0.187007 2.276638,-0.61015 l 1.666637,-2.886701 -2.886702,-1.666638 c -0.797117,-0.46026 -1.816423,-0.187195 -2.2767,0.609914 -0.460294,0.797176 -0.187152,1.816559 0.610063,2.276787 -0.460295,0.797176 -0.187152,1.81656 0.610064,2.276788 z m -1.38353,-4.836598 c 0.920455,-5.7e-5 1.66659,-0.746269 1.666551,-1.666724 V -70 h -3.333276 c -0.920454,-3.8e-5 -1.666666,0.746097 -1.666723,1.666551 -3.9e-5,0.920522 0.746201,1.666762 1.666723,1.666724 -3.9e-5,0.920523 0.746202,1.666763 1.666725,1.666724 z m -3.616471,-3.496851 c 0.797109,-0.460277 1.070175,-1.479583 0.609914,-2.276701 l -1.666638,-2.886701 -2.886702,1.666638 c -0.797156,0.460194 -1.070327,1.479472 -0.610149,2.276637 0.460228,0.797215 1.479611,1.070358 2.276787,0.610064 0.460228,0.797215 1.479612,1.070358 2.276788,0.610063 z m -4.880381,-1.220127 c 0.460178,-0.797166 0.187007,-1.816444 -0.61015,-2.276638 l -2.886701,-1.666637 -1.666638,2.886702 c -0.46026,0.797117 -0.187195,1.816423 0.609914,2.2767 0.797176,0.460294 1.816559,0.187152 2.276787,-0.610063 0.797176,0.460295 1.81656,0.187152 2.276788,-0.610064 z"
         inkscape:path-effect="#path-effect4956"
         inkscape:original-d="M -65.000001,-68.333449 A 1.6666535,1.6666535 0 0 0 -66.666725,-70 H -70 v 3.333276 a 1.6666535,1.6666535 0 0 0 1.666551,1.666723 1.6666535,1.6666535 0 0 0 1.666724,-1.666723 1.6666535,1.6666535 0 0 0 1.666724,-1.666725 z"
         class="UnoptimicedTransforms"
         transform="matrix(0.66869143,0,0,0.66869143,60.121486,-24.878514)" /><path
         id="path4958"
         style="fill:#a91f16;fill-opacity:1;stroke-width:0.225589;stroke-linecap:round;stroke-linejoin:round"
         d="m -65.000001,-68.333449 c -5.7e-5,-0.920455 -0.746269,-1.66659 -1.666724,-1.666551 H -70 v 3.333276 c -3.8e-5,0.920454 0.746097,1.666666 1.666551,1.666723 0.920522,3.9e-5 1.666762,-0.746201 1.666724,-1.666723 0.920523,3.9e-5 1.666763,-0.746202 1.666724,-1.666725 z m -3.496851,3.616471 c -0.460277,-0.797109 -1.479583,-1.070175 -2.276701,-0.609914 l -2.886701,1.666638 1.666638,2.886702 c 0.460194,0.797156 1.479472,1.070327 2.276637,0.610149 0.797215,-0.460228 1.070358,-1.479611 0.610064,-2.276787 0.797215,-0.460228 1.070358,-1.479612 0.610063,-2.276788 z m -1.220127,4.880381 c -0.797166,-0.460178 -1.816444,-0.187007 -2.276638,0.61015 l -1.666637,2.886701 2.886702,1.666638 c 0.797117,0.46026 1.816423,0.187195 2.2767,-0.609914 0.460294,-0.797176 0.187152,-1.816559 -0.610063,-2.276787 0.460295,-0.797176 0.187152,-1.81656 -0.610064,-2.276788 z m 1.38353,4.836598 c -0.920455,5.7e-5 -1.66659,0.746269 -1.666551,1.666724 V -50 h 3.333276 c 0.920454,3.8e-5 1.666666,-0.746097 1.666723,-1.666551 3.9e-5,-0.920522 -0.746201,-1.666762 -1.666723,-1.666724 3.9e-5,-0.920523 -0.746202,-1.666763 -1.666725,-1.666724 z m 3.616471,3.496851 c -0.797109,0.460277 -1.070175,1.479583 -0.609914,2.276701 l 1.666638,2.886701 2.886702,-1.666638 c 0.797156,-0.460194 1.070327,-1.479472 0.610149,-2.276637 -0.460228,-0.797215 -1.479611,-1.070358 -2.276787,-0.610064 -0.460228,-0.797215 -1.479612,-1.070358 -2.276788,-0.610063 z m 4.880381,1.220127 c -0.460178,0.797166 -0.187007,1.816444 0.61015,2.276638 l 2.886701,1.666637 1.666638,-2.886702 c 0.46026,-0.797117 0.187195,-1.816423 -0.609914,-2.2767 -0.797176,-0.460294 -1.816559,-0.187152 -2.276787,0.610063 -0.797176,-0.460295 -1.81656,-0.187152 -2.276788,0.610064 z m 4.836598,-1.38353 c 5.7e-5,0.920455 0.746269,1.66659 1.666724,1.666551 H -50 v -3.333276 c 3.8e-5,-0.920454 -0.746097,-1.666666 -1.666551,-1.666723 -0.920522,-3.9e-5 -1.666762,0.746201 -1.666724,1.666723 -0.920523,-3.9e-5 -1.666763,0.746202 -1.666724,1.666725 z m 3.496851,-3.616471 c 0.460277,0.797109 1.479583,1.070175 2.276701,0.609914 l 2.886701,-1.666638 -1.666638,-2.886702 c -0.460194,-0.797156 -1.479472,-1.070327 -2.276637,-0.610149 -0.797215,0.460228 -1.070358,1.479611 -0.610064,2.276787 -0.797215,0.460228 -1.070358,1.479612 -0.610063,2.276788 z m 1.220127,-4.880381 c 0.797166,0.460178 1.816444,0.187007 2.276638,-0.61015 l 1.666637,-2.886701 -2.886702,-1.666638 c -0.797117,-0.46026 -1.816423,-0.187195 -2.2767,0.609914 -0.460294,0.797176 -0.187152,1.816559 0.610063,2.276787 -0.460295,0.797176 -0.187152,1.81656 0.610064,2.276788 z m -1.38353,-4.836598 c 0.920455,-5.7e-5 1.66659,-0.746269 1.666551,-1.666724 V -70 h -3.333276 c -0.920454,-3.8e-5 -1.666666,0.746097 -1.666723,1.666551 -3.9e-5,0.920522 0.746201,1.666762 1.666723,1.666724 -3.9e-5,0.920523 0.746202,1.666763 1.666725,1.666724 z m -3.616471,-3.496851 c 0.797109,-0.460277 1.070175,-1.479583 0.609914,-2.276701 l -1.666638,-2.886701 -2.886702,1.666638 c -0.797156,0.460194 -1.070327,1.479472 -0.610149,2.276637 0.460228,0.797215 1.479611,1.070358 2.276787,0.610064 0.460228,0.797215 1.479612,1.070358 2.276788,0.610063 z m -4.880381,-1.220127 c 0.460178,-0.797166 0.187007,-1.816444 -0.61015,-2.276638 l -2.886701,-1.666637 -1.666638,2.886702 c -0.46026,0.797117 -0.187195,1.816423 0.609914,2.2767 0.797176,0.460294 1.816559,0.187152 2.276787,-0.610063 0.797176,0.460295 1.81656,0.187152 2.276788,-0.610064 z"
         inkscape:path-effect="#path-effect4962"
         inkscape:original-d="M -65.000001,-68.333449 A 1.6666535,1.6666535 0 0 0 -66.666725,-70 H -70 v 3.333276 a 1.6666535,1.6666535 0 0 0 1.666551,1.666723 1.6666535,1.6666535 0 0 0 1.666724,-1.666723 1.6666535,1.6666535 0 0 0 1.666724,-1.666725 z"
         class="UnoptimicedTransforms"
         transform="matrix(0.42818001,0.11473049,-0.11473049,0.42818001,38.806971,-32.42537)" /><ellipse
         style="fill:#035a9d;fill-opacity:1;stroke-width:0.1;stroke-linecap:round;stroke-linejoin:round"
         id="ellipse7022"
         cx="20"
         cy="-65"
         rx="3.057323"
         ry="3.11394" /><path
         id="path4964"
         style="fill:#951b13;fill-opacity:1;stroke-width:0.351485;stroke-linecap:round;stroke-linejoin:round"
         d="m -65.000001,-68.333449 c -5.7e-5,-0.920455 -0.746269,-1.66659 -1.666724,-1.666551 H -70 v 3.333276 c -3.8e-5,0.920454 0.746097,1.666666 1.666551,1.666723 0.920522,3.9e-5 1.666762,-0.746201 1.666724,-1.666723 0.920523,3.9e-5 1.666763,-0.746202 1.666724,-1.666725 z m -3.496851,3.616471 c -0.460277,-0.797109 -1.479583,-1.070175 -2.276701,-0.609914 l -2.886701,1.666638 1.666638,2.886702 c 0.460194,0.797156 1.479472,1.070327 2.276637,0.610149 0.797215,-0.460228 1.070358,-1.479611 0.610064,-2.276787 0.797215,-0.460228 1.070358,-1.479612 0.610063,-2.276788 z m -1.220127,4.880381 c -0.797166,-0.460178 -1.816444,-0.187007 -2.276638,0.61015 l -1.666637,2.886701 2.886702,1.666638 c 0.797117,0.46026 1.816423,0.187195 2.2767,-0.609914 0.460294,-0.797176 0.187152,-1.816559 -0.610063,-2.276787 0.460295,-0.797176 0.187152,-1.81656 -0.610064,-2.276788 z m 1.38353,4.836598 c -0.920455,5.7e-5 -1.66659,0.746269 -1.666551,1.666724 V -50 h 3.333276 c 0.920454,3.8e-5 1.666666,-0.746097 1.666723,-1.666551 3.9e-5,-0.920522 -0.746201,-1.666762 -1.666723,-1.666724 3.9e-5,-0.920523 -0.746202,-1.666763 -1.666725,-1.666724 z m 3.616471,3.496851 c -0.797109,0.460277 -1.070175,1.479583 -0.609914,2.276701 l 1.666638,2.886701 2.886702,-1.666638 c 0.797156,-0.460194 1.070327,-1.479472 0.610149,-2.276637 -0.460228,-0.797215 -1.479611,-1.070358 -2.276787,-0.610064 -0.460228,-0.797215 -1.479612,-1.070358 -2.276788,-0.610063 z m 4.880381,1.220127 c -0.460178,0.797166 -0.187007,1.816444 0.61015,2.276638 l 2.886701,1.666637 1.666638,-2.886702 c 0.46026,-0.797117 0.187195,-1.816423 -0.609914,-2.2767 -0.797176,-0.460294 -1.816559,-0.187152 -2.276787,0.610063 -0.797176,-0.460295 -1.81656,-0.187152 -2.276788,0.610064 z m 4.836598,-1.38353 c 5.7e-5,0.920455 0.746269,1.66659 1.666724,1.666551 H -50 v -3.333276 c 3.8e-5,-0.920454 -0.746097,-1.666666 -1.666551,-1.666723 -0.920522,-3.9e-5 -1.666762,0.746201 -1.666724,1.666723 -0.920523,-3.9e-5 -1.666763,0.746202 -1.666724,1.666725 z m 3.496851,-3.616471 c 0.460277,0.797109 1.479583,1.070175 2.276701,0.609914 l 2.886701,-1.666638 -1.666638,-2.886702 c -0.460194,-0.797156 -1.479472,-1.070327 -2.276637,-0.610149 -0.797215,0.460228 -1.070358,1.479611 -0.610064,2.276787 -0.797215,0.460228 -1.070358,1.479612 -0.610063,2.276788 z m 1.220127,-4.880381 c 0.797166,0.460178 1.816444,0.187007 2.276638,-0.61015 l 1.666637,-2.886701 -2.886702,-1.666638 c -0.797117,-0.46026 -1.816423,-0.187195 -2.2767,0.609914 -0.460294,0.797176 -0.187152,1.816559 0.610063,2.276787 -0.460295,0.797176 -0.187152,1.81656 0.610064,2.276788 z m -1.38353,-4.836598 c 0.920455,-5.7e-5 1.66659,-0.746269 1.666551,-1.666724 V -70 h -3.333276 c -0.920454,-3.8e-5 -1.666666,0.746097 -1.666723,1.666551 -3.9e-5,0.920522 0.746201,1.666762 1.666723,1.666724 -3.9e-5,0.920523 0.746202,1.666763 1.666725,1.666724 z m -3.616471,-3.496851 c 0.797109,-0.460277 1.070175,-1.479583 0.609914,-2.276701 l -1.666638,-2.886701 -2.886702,1.666638 c -0.797156,0.460194 -1.070327,1.479472 -0.610149,2.276637 0.460228,0.797215 1.479611,1.070358 2.276787,0.610064 0.460228,0.797215 1.479612,1.070358 2.276788,0.610063 z m -4.880381,-1.220127 c 0.460178,-0.797166 0.187007,-1.816444 -0.61015,-2.276638 l -2.886701,-1.666637 -1.666638,2.886702 c -0.46026,0.797117 -0.187195,1.816423 0.609914,2.2767 0.797176,0.460294 1.816559,0.187152 2.276787,-0.610063 0.797176,0.460295 1.81656,0.187152 2.276788,-0.610064 z"
         inkscape:path-effect="#path-effect4968"
         inkscape:original-d="M -65.000001,-68.333449 A 1.6666535,1.6666535 0 0 0 -66.666725,-70 H -70 v 3.333276 a 1.6666535,1.6666535 0 0 0 1.666551,1.666723 1.6666535,1.6666535 0 0 0 1.666724,-1.666723 1.6666535,1.6666535 0 0 0 1.666724,-1.666725 z"
         class="UnoptimicedTransforms"
         transform="matrix(0.28450746,0,0,0.28450746,37.070448,-47.929552)" /></g></g></svg>
